<svg width="56" height="55" viewBox="0 0 56 55" fill="none" xmlns="http://www.w3.org/2000/svg">
<g clip-path="url(#clip0_1_2424)">
<path d="M9.92 0H46.09C51.57 0 56.01 4.43 56.01 9.92V44.69C56.01 50.17 51.58 54.61 46.09 54.61H9.92C4.44 54.61 0 50.18 0 44.69V9.92C0 4.43 4.43 0 9.92 0Z" fill="#1E3101"/>
<path d="M41.25 35.49V34.32C41.25 34.13 41.3199 33.95 41.4599 33.81C42.3499 32.74 42.84 31.38 42.86 29.98C42.86 27.09 41.3199 25.45 39.0099 25.45C36.6999 25.45 35.11 27.13 35.11 29.98C35.16 31.38 35.67 32.73 36.58 33.81C36.7 33.95 36.79 34.14 36.79 34.32V35.49C36.79 35.89 36.49 36.24 36.09 36.31C31.42 36.71 30.7 39.9 30.7 41.16C30.7 41.3 30.7199 41.86 30.7199 42H47.38C47.38 42 47.4 41.3 47.4 41.16C47.4 39.95 46.58 36.77 41.99 36.31C41.55 36.24 41.24 35.89 41.24 35.49H41.25Z" fill="#99E83F"/>
<path d="M33.0201 29.98C33.0201 29.89 33.0401 29.82 33.0401 29.72L26.51 32.99V25.41L39.0201 19.13V23.38C39.7401 23.38 40.44 23.52 41.1 23.75V17.45C41.1 17.05 40.8901 16.7 40.5201 16.52L32.7001 12.58C32.1201 12.28 31.42 12.28 30.83 12.58L25.44 15.26L20.07 12.58C19.49 12.28 18.79 12.3 18.2 12.58L10.38 16.52C10.03 16.71 9.80005 17.06 9.80005 17.45V26.74C9.80005 27.53 10.24 28.26 10.94 28.61L24.5 35.4C25.08 35.7 25.78 35.7 26.37 35.4L33.28 31.95C33.14 31.3 33.0501 30.64 33.0201 29.99V29.98ZM24.41 32.99L11.9 26.74V19.13L24.41 25.41V32.99Z" fill="#99E83F"/>
</g>
<defs>
<clipPath id="clip0_1_2424">
<rect width="56" height="54.6" fill="white"/>
</clipPath>
</defs>
</svg>
