<svg width="56" height="55" viewBox="0 0 56 55" fill="none" xmlns="http://www.w3.org/2000/svg">
<mask id="mask0_1_2024" style="mask-type:luminance" maskUnits="userSpaceOnUse" x="0" y="0" width="56" height="55">
<path d="M56 0H0V54.6H56V0Z" fill="white"/>
</mask>
<g mask="url(#mask0_1_2024)">
<mask id="mask1_1_2024" style="mask-type:luminance" maskUnits="userSpaceOnUse" x="0" y="0" width="56" height="55">
<path d="M56 0H0V54.6H56V0Z" fill="white"/>
</mask>
<g mask="url(#mask1_1_2024)">
<path d="M9.92 -0.00999451H46.09C51.57 -0.00999451 56.01 4.43001 56.01 9.91001V44.68C56.01 50.16 51.57 54.6 46.09 54.6H9.92C4.44 54.6 0 50.16 0 44.68V9.91001C0 4.43001 4.44 -0.00999451 9.92 -0.00999451Z" fill="#008CAD"/>
<path d="M44.8399 31.61C42.2199 28.82 34.9699 29.96 33.2699 30.24C30.7699 27.81 29.0199 24.93 28.4299 23.86C29.3799 21.17 29.9899 18.31 30.0799 15.5C30.0799 12.95 29.0599 10.21 26.2299 10.21C25.2399 10.23 24.3399 10.78 23.8399 11.6C22.6399 13.68 23.1099 17.98 25.0399 22.32C23.9099 25.51 22.2799 30.11 20.1299 33.84C17.2299 35 11.0599 37.83 10.4699 40.97C10.2799 41.89 10.6099 42.84 11.3199 43.47C12.0099 44.08 12.8999 44.39 13.8199 44.37C17.5299 44.37 21.2399 39.22 23.7399 34.81C25.8399 34.08 29.1999 33.11 32.5699 32.49C36.4899 35.91 39.9899 36.43 41.7599 36.43C44.1699 36.43 45.0699 35.39 45.3999 34.52C45.7499 33.53 45.5399 32.39 44.8299 31.59M42.2899 33.4C42.1699 34.08 41.2999 34.77 39.6699 34.42C37.7799 33.95 36.0099 33.05 34.5199 31.82C35.7999 31.61 38.7699 31.32 40.8699 31.72C41.6299 31.86 42.4999 32.29 42.2899 33.4ZM25.3799 12.5C25.5499 12.19 25.8499 11.98 26.2099 11.98C27.1099 11.98 27.2999 13.07 27.2999 13.96C27.1799 16.11 26.7099 18.3 26.1199 20.27C24.6099 16.25 24.8199 13.47 25.3899 12.5M25.1699 32.13C25.9699 30.55 27.1099 27.67 27.5099 26.51C28.4099 28 29.9199 29.86 30.7199 30.71C30.7399 30.69 27.6499 31.32 25.1699 32.13ZM19.2399 36.19C16.8499 40.02 14.5199 42.42 13.1499 42.42C12.9399 42.42 12.6999 42.35 12.5399 42.21C12.2799 42 12.1599 41.67 12.2299 41.34C12.4899 39.97 15.2099 37.99 19.2399 36.19Z" fill="white"/>
</g>
</g>
</svg>
