<svg width="56" height="55" viewBox="0 0 56 55" fill="none" xmlns="http://www.w3.org/2000/svg">
<g clip-path="url(#clip0_1_1628)">
<mask id="mask0_1_1628" style="mask-type:luminance" maskUnits="userSpaceOnUse" x="0" y="0" width="56" height="55">
<path d="M56 0H0V54.6H56V0Z" fill="white"/>
</mask>
<g mask="url(#mask0_1_1628)">
<mask id="mask1_1_1628" style="mask-type:luminance" maskUnits="userSpaceOnUse" x="0" y="0" width="56" height="55">
<path d="M56 0H0V54.6H56V0Z" fill="white"/>
</mask>
<g mask="url(#mask1_1_1628)">
<path d="M9.92 0H46.09C51.56 0 56 4.44 56 9.92V44.69C56 50.17 51.56 54.61 46.08 54.61H9.92C4.44 54.6 0 50.16 0 44.68V9.92C0 4.44 4.44 0 9.92 0Z" fill="#49021F"/>
<path d="M20.34 14.28V38.21C20.34 38.46 20.23 38.59 20 38.59H15.45C15.25 38.59 15.15 38.46 15.15 38.21V14.28C15.15 14.08 15.26 13.98 15.49 13.98H20.04C20.19 13.96 20.32 14.06 20.34 14.21C20.34 14.24 20.34 14.26 20.34 14.28Z" fill="#FF3366"/>
<path d="M33.79 38.96C32.06 38.99 30.35 38.63 28.77 37.91C27.31 37.23 26.08 36.13 25.26 34.74C24.41 33.32 23.98 31.55 23.98 29.42C23.96 27.7 24.41 26 25.26 24.5C26.14 22.97 27.42 21.72 28.98 20.89C30.61 19.99 32.57 19.54 34.88 19.54C35.01 19.54 35.17 19.54 35.37 19.56C35.57 19.57 35.81 19.59 36.08 19.62V12.22C36.08 12.04 36.15 11.96 36.31 11.96H41.04C41.15 11.94 41.25 12.02 41.27 12.13C41.27 12.15 41.27 12.17 41.27 12.19V34.39C41.27 34.82 41.29 35.28 41.33 35.78C41.37 36.28 41.4 36.73 41.42 37.13C41.42 37.29 41.34 37.44 41.19 37.51C39.97 38.02 38.7 38.4 37.4 38.64C36.21 38.86 35 38.97 33.79 38.98M36.08 34.31V24.05C35.88 24 35.67 23.96 35.46 23.94C35.2 23.91 34.95 23.9 34.69 23.9C33.78 23.9 32.88 24.1 32.06 24.5C31.26 24.89 30.58 25.49 30.09 26.23C29.58 26.98 29.32 27.97 29.32 29.2C29.3 30.02 29.44 30.83 29.71 31.6C29.94 32.22 30.3 32.79 30.76 33.25C31.21 33.68 31.75 34 32.34 34.19C32.96 34.39 33.62 34.49 34.28 34.49C34.63 34.49 34.96 34.48 35.26 34.45C35.54 34.43 35.82 34.38 36.09 34.3" fill="#FF3366"/>
</g>
</g>
</g>
<defs>
<clipPath id="clip0_1_1628">
<rect width="56" height="54.6" fill="white"/>
</clipPath>
</defs>
</svg>
