<svg width="56" height="55" viewBox="0 0 56 55" fill="none" xmlns="http://www.w3.org/2000/svg">
<g clip-path="url(#clip0_1_1841)">
<mask id="mask0_1_1841" style="mask-type:luminance" maskUnits="userSpaceOnUse" x="0" y="0" width="56" height="55">
<path d="M56 0H0V54.6H56V0Z" fill="white"/>
</mask>
<g mask="url(#mask0_1_1841)">
<mask id="mask1_1_1841" style="mask-type:luminance" maskUnits="userSpaceOnUse" x="0" y="0" width="56" height="55">
<path d="M56 0H0V54.6H56V0Z" fill="white"/>
</mask>
<g mask="url(#mask1_1_1841)">
<mask id="mask2_1_1841" style="mask-type:luminance" maskUnits="userSpaceOnUse" x="0" y="0" width="56" height="55">
<path d="M56 0H0V54.6H56V0Z" fill="white"/>
</mask>
<g mask="url(#mask2_1_1841)">
<path d="M9.92 0H46.09C51.56 0 56 4.44 56 9.92V44.69C56 50.17 51.56 54.61 46.08 54.61H9.92C4.44 54.6 0 50.16 0 44.68V9.92C0 4.44 4.44 0 9.92 0Z" fill="#001E36"/>
<path d="M16.37 35.26V18.26C16.37 18.14 16.42 18.07 16.53 18.07C16.81 18.07 17.07 18.07 17.46 18.06C17.85 18.06 18.27 18.04 18.72 18.03C19.17 18.03 19.65 18.01 20.16 18C20.67 18 21.17 17.99 21.66 17.99C22.82 17.96 23.97 18.13 25.07 18.5C25.9 18.78 26.66 19.24 27.29 19.86C27.82 20.39 28.24 21.03 28.5 21.74C28.75 22.43 28.87 23.15 28.87 23.88C28.87 25.3 28.54 26.47 27.89 27.39C27.23 28.32 26.3 29.02 25.23 29.4C24.03 29.81 22.77 30 21.5 29.96C21.11 29.96 20.84 29.96 20.68 29.95C20.52 29.95 20.28 29.94 19.96 29.94V35.25C19.98 35.37 19.9 35.47 19.78 35.49C19.76 35.49 19.74 35.49 19.72 35.49H16.55C16.43 35.49 16.36 35.42 16.36 35.28M19.97 21.27V26.81C20.2 26.83 20.41 26.84 20.61 26.84H21.49C22.14 26.84 22.78 26.73 23.39 26.54C23.92 26.38 24.39 26.08 24.75 25.66C25.09 25.25 25.27 24.68 25.27 23.96C25.29 23.45 25.15 22.94 24.88 22.5C24.6 22.07 24.2 21.74 23.72 21.56C23.1 21.32 22.44 21.21 21.78 21.23C21.35 21.23 20.98 21.23 20.65 21.24C20.32 21.25 20.09 21.26 19.97 21.28" fill="#31A8FF"/>
<path d="M39.17 25.8C38.67 25.54 38.14 25.36 37.59 25.24C36.98 25.1 36.36 25.03 35.74 25.03C35.4 25.03 35.07 25.06 34.74 25.15C34.53 25.2 34.35 25.31 34.22 25.48C34.13 25.61 34.09 25.77 34.09 25.93C34.09 26.09 34.15 26.24 34.25 26.36C34.4 26.54 34.6 26.69 34.81 26.8C35.19 27 35.58 27.19 35.98 27.34C36.87 27.64 37.73 28.05 38.52 28.55C39.06 28.89 39.51 29.36 39.83 29.92C40.09 30.45 40.23 31.03 40.21 31.62C40.23 32.4 40 33.16 39.57 33.82C39.11 34.48 38.47 34.99 37.72 35.3C36.77 35.68 35.75 35.86 34.73 35.83C33.98 35.83 33.22 35.77 32.48 35.62C31.9 35.51 31.33 35.33 30.79 35.09C30.67 35.03 30.6 34.9 30.6 34.77V31.9C30.6 31.84 30.62 31.79 30.67 31.75C30.72 31.72 30.77 31.73 30.82 31.76C31.46 32.14 32.15 32.41 32.87 32.57C33.5 32.73 34.16 32.81 34.81 32.82C35.28 32.85 35.75 32.77 36.18 32.58C36.45 32.46 36.62 32.18 36.62 31.89C36.6 31.62 36.45 31.37 36.22 31.22C35.72 30.89 35.17 30.63 34.6 30.45C33.76 30.16 32.97 29.76 32.25 29.25C31.73 28.89 31.3 28.41 31 27.85C30.74 27.33 30.61 26.75 30.61 26.16C30.61 25.46 30.8 24.76 31.17 24.17C31.59 23.51 32.19 22.98 32.9 22.65C33.82 22.23 34.82 22.03 35.83 22.06C36.51 22.06 37.2 22.1 37.88 22.21C38.37 22.27 38.85 22.4 39.31 22.6C39.38 22.62 39.44 22.67 39.47 22.75C39.49 22.82 39.5 22.88 39.5 22.95V25.64C39.5 25.7 39.47 25.76 39.42 25.8C39.35 25.84 39.26 25.84 39.19 25.8" fill="#31A8FF"/>
<g opacity="0.6">
<mask id="mask3_1_1841" style="mask-type:luminance" maskUnits="userSpaceOnUse" x="7" y="6" width="42" height="42">
<path d="M48.41 6.95H7.70996V47.64H48.41V6.95Z" fill="white"/>
</mask>
<g mask="url(#mask3_1_1841)">
<path d="M28.06 47.65C16.82 47.65 7.70996 38.54 7.70996 27.31C7.70996 16.07 16.82 6.95999 28.05 6.95999C31.24 6.95999 34.38 7.69999 37.22 9.14999C37.45 9.26999 37.54 9.54999 37.43 9.77999C37.31 10.01 37.03 10.1 36.8 9.98999C34.09 8.60999 31.09 7.89999 28.05 7.90999C17.33 7.90999 8.63996 16.6 8.63996 27.32C8.63996 38.04 17.33 46.73 28.05 46.73C38.77 46.73 47.46 38.04 47.46 27.32C47.46 24.26 46.75 21.25 45.35 18.53C45.23 18.3 45.32 18.02 45.55 17.9C45.78 17.78 46.06 17.87 46.18 18.11C47.64 20.96 48.4 24.12 48.39 27.32C48.38 38.55 39.27 47.65 28.04 47.67" fill="#31A8FF"/>
</g>
</g>
</g>
</g>
</g>
</g>
<defs>
<clipPath id="clip0_1_1841">
<rect width="56" height="54.6" fill="white"/>
</clipPath>
</defs>
</svg>
