<svg width="56" height="55" viewBox="0 0 56 55" fill="none" xmlns="http://www.w3.org/2000/svg">
<mask id="mask0_1_769" style="mask-type:luminance" maskUnits="userSpaceOnUse" x="0" y="0" width="56" height="55">
<path d="M56 0H0V54.6H56V0Z" fill="white"/>
</mask>
<g mask="url(#mask0_1_769)">
<mask id="mask1_1_769" style="mask-type:luminance" maskUnits="userSpaceOnUse" x="0" y="0" width="56" height="55">
<path d="M56 0H0V54.6H56V0Z" fill="white"/>
</mask>
<g mask="url(#mask1_1_769)">
<path d="M9.92 0H46.09C51.57 0 56.01 4.44 56.01 9.92V44.69C56.01 50.17 51.57 54.61 46.09 54.61H9.92C4.44 54.6 0 50.16 0 44.68V9.92C0 4.44 4.44 0 9.92 0Z" fill="#B30B00"/>
<path d="M44.84 31.61C42.22 28.82 34.97 29.96 33.27 30.24C30.77 27.81 29.02 24.93 28.43 23.86C29.38 21.17 29.99 18.31 30.08 15.5C30.08 12.95 29.06 10.21 26.23 10.21C25.24 10.23 24.34 10.78 23.84 11.6C22.64 13.68 23.11 17.98 25.04 22.32C23.91 25.51 22.28 30.11 20.13 33.84C17.23 35 11.06 37.83 10.47 40.97C10.28 41.89 10.61 42.84 11.32 43.47C12.01 44.08 12.9 44.39 13.82 44.37C17.53 44.37 21.24 39.22 23.74 34.81C25.84 34.08 29.2 33.11 32.57 32.49C36.49 35.91 39.99 36.43 41.76 36.43C44.17 36.43 45.07 35.39 45.4 34.52C45.75 33.53 45.54 32.39 44.83 31.59M42.29 33.41C42.17 34.09 41.3 34.78 39.67 34.43C37.78 33.96 36.01 33.06 34.52 31.83C35.8 31.62 38.77 31.33 40.87 31.73C41.63 31.87 42.5 32.3 42.29 33.41ZM25.38 12.51C25.55 12.2 25.85 11.99 26.21 11.99C27.11 11.99 27.3 13.08 27.3 13.97C27.18 16.12 26.71 18.31 26.12 20.28C24.61 16.26 24.82 13.48 25.39 12.51M25.17 32.13C25.97 30.55 27.11 27.67 27.51 26.51C28.41 28 29.92 29.86 30.72 30.71C30.74 30.69 27.65 31.32 25.17 32.13ZM19.24 36.19C16.85 40.02 14.52 42.42 13.15 42.42C12.94 42.42 12.7 42.35 12.54 42.21C12.28 42 12.16 41.67 12.23 41.34C12.49 39.97 15.21 37.99 19.24 36.19Z" fill="white"/>
</g>
</g>
</svg>
