<svg width="56" height="55" viewBox="0 0 56 55" fill="none" xmlns="http://www.w3.org/2000/svg">
<g clip-path="url(#clip0_1_918)">
<mask id="mask0_1_918" style="mask-type:luminance" maskUnits="userSpaceOnUse" x="0" y="0" width="56" height="55">
<path d="M56 0H0V54.6H56V0Z" fill="white"/>
</mask>
<g mask="url(#mask0_1_918)">
<mask id="mask1_1_918" style="mask-type:luminance" maskUnits="userSpaceOnUse" x="0" y="0" width="56" height="55">
<path d="M56 0H0V54.6H56V0Z" fill="white"/>
</mask>
<g mask="url(#mask1_1_918)">
<path d="M9.92 0H46.09C51.56 0 56 4.44 56 9.92V44.69C56 50.17 51.56 54.61 46.08 54.61H9.92C4.44 54.6 0 50.16 0 44.68V9.92C0 4.44 4.44 0 9.92 0Z" fill="#00005B"/>
<path d="M22.01 32.76H13.33L11.56 38.26C11.51 38.47 11.32 38.61 11.11 38.6H6.71C6.46 38.6 6.37 38.46 6.45 38.19L13.96 16.64C14.03 16.41 14.11 16.16 14.19 15.87C14.3 15.38 14.37 14.88 14.37 14.38C14.35 14.25 14.44 14.14 14.57 14.12C14.59 14.12 14.61 14.12 14.63 14.12H20.6C20.77 14.12 20.88 14.18 20.9 14.31L29.39 38.23C29.46 38.48 29.39 38.61 29.16 38.61H24.28C24.11 38.63 23.95 38.52 23.9 38.35L21.98 32.78L22.01 32.76ZM14.68 28.12H20.62C20.47 27.62 20.29 27.06 20.09 26.43C19.89 25.81 19.68 25.13 19.45 24.42L18.77 22.28C18.54 21.57 18.34 20.88 18.15 20.21C17.96 19.55 17.79 18.94 17.64 18.39H17.6C17.39 19.4 17.12 20.41 16.81 21.4C16.46 22.53 16.1 23.68 15.74 24.86C15.38 26.04 15.02 27.13 14.67 28.13" fill="#9999FF"/>
<path d="M47.33 20.21V34.51C47.33 35.14 47.33 35.69 47.35 36.18C47.36 36.67 47.39 37.09 47.42 37.46C47.46 37.82 47.49 38.04 47.51 38.29C47.53 38.49 47.45 38.59 47.25 38.59H43.23C43.04 38.61 42.86 38.5 42.78 38.33C42.73 38.14 42.68 37.94 42.65 37.75C42.61 37.59 42.6 37.42 42.59 37.26C41.83 37.94 40.93 38.43 39.96 38.71C39.11 38.94 38.24 39.06 37.37 39.07C36.51 39.07 35.65 38.95 34.83 38.67C34.07 38.41 33.39 37.97 32.84 37.39C32.24 36.74 31.79 35.97 31.53 35.14C31.19 34.06 31.03 32.94 31.06 31.82V20.26C31.04 20.12 31.14 19.98 31.29 19.96C31.32 19.96 31.34 19.96 31.37 19.96H35.83C35.98 19.94 36.11 20.04 36.13 20.19C36.13 20.21 36.13 20.24 36.13 20.26V31.22C36.13 32.25 36.36 33.05 36.81 33.64C37.26 34.23 38.17 34.52 39.22 34.52C39.76 34.52 40.29 34.43 40.8 34.24C41.33 34.05 41.83 33.8 42.28 33.47V20.22C42.28 20.05 42.39 19.96 42.62 19.96H47.08C47.21 19.94 47.32 20.03 47.34 20.16C47.34 20.18 47.34 20.2 47.34 20.22" fill="#9999FF"/>
</g>
</g>
</g>
<defs>
<clipPath id="clip0_1_918">
<rect width="56" height="54.6" fill="white"/>
</clipPath>
</defs>
</svg>
