<svg width="56" height="55" viewBox="0 0 56 55" fill="none" xmlns="http://www.w3.org/2000/svg">
<g clip-path="url(#clip0_1_794)">
<mask id="mask0_1_794" style="mask-type:luminance" maskUnits="userSpaceOnUse" x="0" y="0" width="56" height="55">
<path d="M56 0H0V54.6H56V0Z" fill="white"/>
</mask>
<g mask="url(#mask0_1_794)">
<mask id="mask1_1_794" style="mask-type:luminance" maskUnits="userSpaceOnUse" x="0" y="0" width="56" height="55">
<path d="M56 0H0V54.6H56V0Z" fill="white"/>
</mask>
<g mask="url(#mask1_1_794)">
<path d="M9.92 0H46.09C51.56 0 56 4.44 56 9.92V44.69C56 50.17 51.56 54.61 46.08 54.61H9.92C4.44 54.6 0 50.16 0 44.68V9.92C0 4.44 4.44 0 9.92 0Z" fill="#013301"/>
<path d="M25.2 32.76H16.52L14.75 38.26C14.7 38.47 14.51 38.61 14.3 38.6H9.9C9.65 38.6 9.56 38.46 9.64 38.19L17.15 16.64C17.22 16.41 17.3 16.19 17.38 15.91C17.48 15.41 17.53 14.9 17.53 14.39C17.51 14.26 17.6 14.15 17.73 14.13C17.75 14.13 17.77 14.13 17.8 14.13H23.77C23.94 14.13 24.05 14.19 24.07 14.32L32.6 38.24C32.68 38.49 32.6 38.62 32.37 38.62H27.49C27.32 38.64 27.16 38.53 27.11 38.36L25.19 32.79L25.2 32.76ZM17.88 28.12H23.82C23.67 27.62 23.49 27.06 23.29 26.43C23.09 25.81 22.88 25.13 22.65 24.42L21.97 22.28C21.74 21.57 21.54 20.88 21.35 20.21C21.16 19.55 20.99 18.94 20.84 18.39H20.8C20.59 19.4 20.32 20.41 20.01 21.4C19.66 22.53 19.3 23.68 18.94 24.86C18.58 26.04 18.22 27.13 17.87 28.13" fill="#99E83F"/>
<path d="M35.08 19.92H39.18C39.41 19.92 39.61 20.07 39.67 20.3C39.76 20.5 39.82 20.7 39.86 20.91C39.91 21.15 39.95 21.4 39.97 21.64C39.99 21.9 40.01 22.18 40.01 22.49C40.71 21.67 41.56 20.99 42.51 20.48C43.53 19.9 44.68 19.61 45.85 19.63C46.01 19.61 46.17 19.72 46.19 19.88C46.19 19.91 46.19 19.94 46.19 19.96V24.5C46.19 24.68 46.06 24.76 45.81 24.76C45.03 24.71 44.25 24.76 43.48 24.93C42.81 25.06 42.15 25.27 41.53 25.55C40.99 25.8 40.42 26.09 40.12 26.41V38.23C40.12 38.46 40.02 38.57 39.82 38.57H35.43C35.25 38.6 35.08 38.47 35.05 38.29C35.05 38.26 35.05 38.23 35.05 38.19V25.36C35.05 24.81 35.05 24.23 35.03 23.61C35.01 22.99 35 22.39 34.97 21.79C34.95 21.25 34.9 20.7 34.82 20.16C34.79 20.04 34.86 19.93 34.97 19.9C35.01 19.9 35.04 19.9 35.08 19.9" fill="#99E83F"/>
</g>
</g>
</g>
<defs>
<clipPath id="clip0_1_794">
<rect width="56" height="54.6" fill="white"/>
</clipPath>
</defs>
</svg>
