<svg width="56" height="55" viewBox="0 0 56 55" fill="none" xmlns="http://www.w3.org/2000/svg">
<g clip-path="url(#clip0_1_960)">
<mask id="mask0_1_960" style="mask-type:luminance" maskUnits="userSpaceOnUse" x="0" y="0" width="56" height="55">
<path d="M56 0H0V54.6H56V0Z" fill="white"/>
</mask>
<g mask="url(#mask0_1_960)">
<mask id="mask1_1_960" style="mask-type:luminance" maskUnits="userSpaceOnUse" x="0" y="0" width="56" height="55">
<path d="M56 0H0V54.6H56V0Z" fill="white"/>
</mask>
<g mask="url(#mask1_1_960)">
<path d="M9.92 0H46.09C51.56 0 56 4.44 56 9.92V44.69C56 50.17 51.56 54.61 46.08 54.61H9.92C4.44 54.6 0 50.16 0 44.68V9.92C0 4.44 4.44 0 9.92 0Z" fill="#000B1D"/>
<path d="M12.85 38.4V14.56C12.84 14.33 12.91 14.21 13.06 14.18C13.48 14.15 14.14 14.14 15.01 14.12C15.89 14.11 16.74 14.1 17.77 14.08C18.8 14.07 19.74 14.06 20.59 14.06C22.64 14.06 24.32 14.21 25.54 14.66C26.75 15.11 27.69 15.68 28.34 16.37C28.96 16.97 29.43 17.71 29.72 18.53C29.93 19.2 30.05 19.89 30.06 20.6C30.06 21.35 29.9 22.1 29.62 22.8C29.4 23.38 29.1 23.92 28.72 24.4C28.43 24.77 28.09 25.08 27.71 25.34C28.24 25.62 28.74 25.97 29.19 26.37C29.78 26.89 30.25 27.53 30.6 28.23C31.04 29.11 31.27 30.09 31.25 31.08C31.25 32.53 30.8 33.94 29.95 35.11C29.11 36.26 27.91 37.16 26.34 37.8C24.55 38.5 22.64 38.84 20.72 38.81H18.22C17.43 38.81 16.77 38.81 16.1 38.79C15.44 38.78 14.86 38.76 14.37 38.75C13.88 38.74 13.46 38.73 13.11 38.73C12.94 38.71 12.85 38.59 12.85 38.39M17.93 18.49L17.95 23.69H20.41C21.09 23.69 21.75 23.7 22.4 23.73C22.87 23.73 23.33 23.78 23.79 23.88C24.12 23.6 24.4 23.25 24.6 22.87C24.85 22.43 24.98 21.93 24.98 21.43C24.98 20.81 24.79 20.21 24.43 19.71C24.07 19.26 23.57 18.92 23.02 18.75C22.25 18.53 21.45 18.43 20.65 18.45H19.56C19.23 18.45 19.03 18.45 18.77 18.47C18.51 18.48 18.23 18.49 17.92 18.49M17.95 28.07V34.32C18.38 34.34 18.71 34.36 19.13 34.38C19.56 34.39 20.07 34.4 20.67 34.4C21.59 34.41 22.51 34.3 23.39 34.06C24.08 33.9 24.7 33.53 25.17 33.01C25.62 32.53 25.88 31.9 25.9 31.24C25.87 30.6 25.66 29.99 25.28 29.47C24.95 28.97 24.35 28.56 23.48 28.33C23.14 28.25 22.79 28.18 22.45 28.14C21.99 28.09 21.54 28.06 21.08 28.07H17.94H17.95Z" fill="white"/>
<path d="M34.57 19.93H38.67C38.9 19.93 39.1 20.08 39.16 20.31C39.25 20.47 39.31 20.65 39.35 20.84C39.4 21.08 39.44 21.33 39.46 21.57C39.48 21.83 39.5 22.2 39.5 22.5C40.2 21.66 41.04 20.95 42 20.41C43.01 19.85 44.08 19.72 45.39 19.72C45.55 19.7 45.7 19.81 45.73 19.97C45.73 20 45.73 20.03 45.73 20.05V24.52C45.73 24.7 45.6 24.78 45.35 24.78C44.56 24.73 43.76 24.78 42.98 24.95C42.31 25.08 41.65 25.29 41.03 25.57C40.52 25.78 40.06 26.07 39.65 26.43V38.25C39.65 38.48 39.55 38.59 39.35 38.59H34.93C34.75 38.62 34.58 38.49 34.55 38.31C34.55 38.28 34.55 38.25 34.55 38.21V25.38C34.55 24.83 34.55 24.25 34.53 23.63C34.52 23.02 34.5 22.41 34.47 21.81C34.45 21.27 34.4 20.73 34.32 20.19C34.29 20.07 34.36 19.96 34.47 19.93C34.51 19.92 34.54 19.92 34.58 19.93" fill="white"/>
</g>
</g>
</g>
<defs>
<clipPath id="clip0_1_960">
<rect width="56" height="54.6" fill="white"/>
</clipPath>
</defs>
</svg>
