<svg width="56" height="54" viewBox="0 0 56 54" fill="none" xmlns="http://www.w3.org/2000/svg">
<g clip-path="url(#clip0_1_2624)">
<mask id="mask0_1_2624" style="mask-type:luminance" maskUnits="userSpaceOnUse" x="0" y="0" width="56" height="54">
<path d="M56 0H0V54H56V0Z" fill="white"/>
</mask>
<g mask="url(#mask0_1_2624)">
<mask id="mask1_1_2624" style="mask-type:luminance" maskUnits="userSpaceOnUse" x="0" y="0" width="56" height="54">
<path d="M56 0H0V54H56V0Z" fill="white"/>
</mask>
<g mask="url(#mask1_1_2624)">
<path d="M9.91 0H46.08C51.55 0 55.99 4.44 55.99 9.91V44.08C55.99 49.56 51.55 53.99 46.08 53.99H9.91C4.44 53.99 0 49.55 0 44.08V9.91C0 4.44 4.44 0 9.91 0Z" fill="#1E3101"/>
<path d="M17.6099 38.37C16.3499 38.38 15.0899 38.26 13.8499 38.02C12.8699 37.83 11.9199 37.53 11.0199 37.11C10.7999 36.98 10.6899 36.73 10.7199 36.48V32.08C10.7199 32 10.7499 31.92 10.8099 31.88C10.8899 31.84 10.9799 31.85 11.0499 31.9C12.0699 32.54 13.1799 33.02 14.3399 33.34C15.4499 33.65 16.5899 33.82 17.7399 33.82C18.7899 33.91 19.8399 33.68 20.7599 33.17C21.3199 32.82 21.6599 32.22 21.6699 31.56C21.6699 31.16 21.5699 30.77 21.3699 30.43C21.0999 30.03 20.7499 29.69 20.3299 29.45C19.6799 29.05 18.9999 28.72 18.2999 28.45L16.4499 27.67C15.1799 27.16 13.9899 26.47 12.9199 25.62C12.1499 25 11.5399 24.19 11.1599 23.27C10.8299 22.41 10.6699 21.49 10.6799 20.57C10.6299 17.9 12.1899 15.45 14.6399 14.37C16.1799 13.69 17.8499 13.37 19.5199 13.43C20.6299 13.43 21.7299 13.5 22.8299 13.65C23.6799 13.75 24.5099 13.98 25.2899 14.35C25.4599 14.45 25.5599 14.63 25.5499 14.83V18.87C25.5499 18.98 25.5599 19.11 25.4499 19.18C25.3699 19.23 25.2899 19.19 25.2199 19.15C24.3999 18.73 23.5299 18.42 22.6299 18.23C21.6199 18.01 20.5899 17.89 19.5599 17.9C18.9499 17.89 18.3399 17.95 17.7499 18.09C17.3299 18.18 16.9199 18.34 16.5499 18.55C16.2599 18.72 16.0199 18.96 15.8699 19.25C15.7299 19.52 15.6499 19.82 15.6499 20.12C15.6499 20.5 15.7599 20.87 15.9799 21.18C16.2899 21.56 16.6599 21.87 17.0899 22.11C17.7899 22.51 18.4999 22.87 19.2399 23.2L20.6099 23.72C21.9799 24.24 23.2599 24.96 24.4199 25.85C25.2499 26.5 25.9099 27.33 26.3399 28.29C26.7099 29.19 26.8999 30.15 26.8899 31.12C26.9199 32.49 26.5099 33.83 25.7199 34.95C24.8999 36.08 23.7799 36.96 22.4799 37.48C20.9299 38.11 19.2699 38.41 17.5999 38.37" fill="#99E83F"/>
<path d="M33.9901 33.45L39.2401 33.71C40.7001 33.71 42.1401 34 43.4901 34.54C44.4301 34.92 45.2301 35.58 45.7801 36.43C46.2501 37.23 46.5001 38.15 46.4801 39.08C46.4801 40.34 46.0601 41.57 45.2801 42.56C44.4001 43.68 43.2401 44.55 41.9101 45.08C40.2701 45.73 38.5101 46.05 36.7501 46C35.0201 46.06 33.2901 45.76 31.6801 45.13C30.5201 44.68 29.5101 43.92 28.7601 42.93C28.1901 42.17 27.8601 41.25 27.8301 40.3C27.8401 39.85 27.9601 39.42 28.1601 39.02C28.4401 38.47 28.8001 37.96 29.2101 37.5C29.8001 36.84 30.4301 36.22 31.1001 35.65C32.0201 34.86 32.9701 34.13 33.9701 33.45M36.3601 31.67C35.4301 31.67 34.5101 31.57 33.6001 31.36C32.7201 31.16 31.8801 30.81 31.1201 30.32C30.3701 29.84 29.7601 29.19 29.3301 28.41C28.8601 27.53 28.6401 26.55 28.6601 25.56C28.6501 24.44 28.9601 23.33 29.5501 22.38C30.1701 21.39 31.0701 20.59 32.1201 20.09C33.4001 19.49 34.8001 19.2 36.2101 19.24C36.8801 19.24 37.5201 19.27 38.1501 19.33C38.7801 19.39 39.3001 19.46 39.7201 19.53C39.8901 19.55 40.0501 19.57 40.2001 19.59C40.3501 19.6 40.4801 19.61 40.6101 19.61H45.6801C45.8301 19.61 45.9001 19.7 45.9001 19.87V23.31C45.9301 23.42 45.8601 23.54 45.7501 23.57C45.7201 23.57 45.6801 23.57 45.6401 23.57C45.3901 23.57 45.0101 23.55 44.4801 23.51C43.9501 23.47 43.4901 23.43 43.0901 23.38C43.2501 23.69 43.3801 24.02 43.4801 24.36C43.6001 24.81 43.6501 25.28 43.6501 25.75C43.7001 26.93 43.3701 28.09 42.7101 29.06C42.0501 29.96 41.1501 30.64 40.1001 31.02C38.9001 31.47 37.6401 31.69 36.3601 31.67ZM35.8401 33.93L31.9201 36.37C31.4501 35.89 31.0801 35.31 30.8301 34.69C30.5901 34.08 30.4901 33.44 30.5201 32.78C30.5401 32.25 30.6401 31.73 30.8201 31.23C30.9901 30.75 31.2401 30.3 31.5601 29.9L35.2201 31.38C35.1401 31.55 35.0901 31.74 35.0701 31.93C35.0501 32.15 35.0501 32.38 35.0701 32.6C35.0701 32.84 35.1401 33.08 35.2701 33.29C35.4301 33.53 35.6201 33.75 35.8401 33.94M41.8001 39.85C41.8301 39.43 41.6501 39.02 41.3201 38.76C40.9201 38.49 40.4601 38.32 39.9901 38.24C39.3701 38.12 38.7401 38.06 38.1001 38.04L34.0301 37.86C33.6201 38.12 33.2701 38.48 33.0101 38.9C32.8001 39.18 32.6701 39.51 32.6201 39.86C32.6401 40.28 32.8201 40.68 33.1201 40.97C33.5501 41.4 34.0701 41.71 34.6601 41.88C35.4501 42.13 36.2701 42.25 37.1001 42.23C38.0101 42.26 38.9201 42.14 39.8001 41.9C40.3701 41.75 40.9001 41.45 41.3201 41.03C41.6201 40.72 41.7901 40.3 41.8001 39.87M38.8401 25.57C38.8401 25.11 38.7501 24.66 38.5601 24.24C38.3801 23.85 38.0801 23.52 37.7101 23.3C37.2701 23.05 36.7601 22.93 36.2501 22.95C35.5501 22.91 34.8701 23.15 34.3401 23.62C33.8501 24.14 33.6101 24.84 33.6601 25.54C33.6601 26.19 33.8801 26.81 34.3101 27.3C34.8101 27.83 35.5201 28.11 36.2501 28.06C36.9401 28.09 37.6201 27.86 38.1401 27.39C38.6201 26.91 38.8801 26.25 38.8401 25.58" fill="#99E83F"/>
</g>
</g>
</g>
<defs>
<clipPath id="clip0_1_2624">
<rect width="56" height="54" fill="white"/>
</clipPath>
</defs>
</svg>
