<svg width="56" height="55" viewBox="0 0 56 55" fill="none" xmlns="http://www.w3.org/2000/svg">
<g clip-path="url(#clip0_1_1756)">
<mask id="mask0_1_1756" style="mask-type:luminance" maskUnits="userSpaceOnUse" x="0" y="0" width="56" height="55">
<path d="M56 0H0V54.6H56V0Z" fill="white"/>
</mask>
<g mask="url(#mask0_1_1756)">
<mask id="mask1_1_1756" style="mask-type:luminance" maskUnits="userSpaceOnUse" x="0" y="0" width="56" height="55">
<path d="M56 0H0V54.6H56V0Z" fill="white"/>
</mask>
<g mask="url(#mask1_1_1756)">
<path d="M9.92 0H46.09C51.56 0 56 4.44 56 9.92V44.69C56 50.17 51.56 54.61 46.08 54.61H9.92C4.44 54.6 0 50.16 0 44.68V9.92C0 4.44 4.44 0 9.92 0Z" fill="#00005B"/>
<path d="M7.9 14.21C7.91 14.07 8.04 13.97 8.18 13.98C8.18 13.98 8.18 13.98 8.19 13.98H14.76C14.94 13.96 15.11 14.07 15.15 14.24C15.32 14.89 15.52 15.67 15.76 16.59C16 17.51 16.25 18.51 16.53 19.62C16.8 20.72 17.08 21.85 17.37 23C17.66 24.15 17.93 25.27 18.21 26.36C18.48 27.45 18.71 28.45 18.9 29.36C19.09 30.28 19.25 31.03 19.36 31.63H19.4C19.5 31.11 19.66 30.4 19.9 29.53C20.14 28.65 20.41 27.67 20.72 26.58C21.03 25.49 21.34 24.37 21.66 23.22C21.98 22.07 22.3 20.93 22.61 19.8C22.92 18.67 23.21 17.63 23.48 16.66C23.75 15.7 23.97 14.89 24.14 14.24C24.16 14.08 24.3 13.97 24.46 13.98H30.85C31.01 13.96 31.15 14.07 31.17 14.22C31.17 14.22 31.17 14.23 31.17 14.24L32.03 38.24C32.06 38.32 32.03 38.42 31.98 38.48C31.92 38.54 31.83 38.58 31.75 38.57H27.11C27.05 38.57 26.98 38.55 26.93 38.51C26.88 38.46 26.85 38.38 26.86 38.3C26.86 37.02 26.86 35.68 26.84 34.28C26.83 32.88 26.81 31.47 26.79 30.05C26.77 28.64 26.77 27.28 26.79 25.97C26.81 24.67 26.83 23.47 26.83 22.36C26.83 21.25 26.83 20.3 26.85 19.49C26.86 18.68 26.87 18.07 26.87 17.67H26.83C26.69 18.3 26.5 19.12 26.26 20.13C26.02 21.14 25.74 22.28 25.42 23.55C25.1 24.81 24.75 26.12 24.38 27.48C24.01 28.83 23.65 30.17 23.31 31.5C22.97 32.83 22.63 34.07 22.31 35.22C21.99 36.37 21.72 37.39 21.51 38.26C21.47 38.44 21.3 38.57 21.12 38.56H17.09C16.89 38.59 16.7 38.46 16.66 38.26C16.45 37.38 16.2 36.37 15.93 35.22C15.66 34.07 15.38 32.87 15.09 31.61C14.8 30.36 14.5 29.07 14.18 27.76C13.86 26.45 13.56 25.17 13.27 23.95C12.98 22.73 12.73 21.57 12.5 20.49C12.27 19.41 12.06 18.46 11.88 17.63H11.81V20.6C11.81 21.75 11.79 23.02 11.76 24.41C11.72 25.8 11.69 27.25 11.65 28.77C11.61 30.29 11.57 31.85 11.53 33.46C11.48 35.08 11.42 36.67 11.35 38.25C11.35 38.45 11.25 38.55 11.06 38.55H6.92C6.84 38.55 6.76 38.53 6.69 38.49C6.63 38.45 6.61 38.36 6.64 38.21L7.93 14.17L7.9 14.21Z" fill="#9999FF"/>
<path d="M45.89 30.39H38.49C38.58 31.09 38.82 31.77 39.2 32.36C39.62 32.99 40.21 33.48 40.91 33.77C41.67 34.12 42.67 34.3 43.9 34.3C44.71 34.3 45.52 34.23 46.32 34.09C47.07 33.95 47.81 33.73 48.52 33.43C48.65 33.33 48.71 33.39 48.71 33.62V37.19C48.71 37.29 48.7 37.38 48.65 37.47C48.61 37.54 48.55 37.6 48.48 37.64C47.7 38.01 46.88 38.28 46.04 38.45C44.95 38.66 43.84 38.75 42.73 38.73C40.95 38.73 39.46 38.45 38.26 37.9C37.12 37.4 36.12 36.64 35.33 35.68C34.59 34.78 34.04 33.74 33.71 32.62C33.39 31.52 33.22 30.37 33.22 29.22C33.22 27.96 33.41 26.72 33.8 25.52C34.17 24.35 34.77 23.27 35.55 22.33C36.32 21.4 37.28 20.64 38.37 20.11C39.59 19.55 40.93 19.27 42.28 19.3C43.53 19.27 44.76 19.51 45.9 20.01C46.86 20.45 47.71 21.11 48.36 21.94C48.98 22.73 49.45 23.63 49.75 24.59C50.05 25.51 50.2 26.48 50.2 27.44C50.2 27.99 50.18 28.49 50.14 28.94C50.1 29.39 50.07 29.72 50.05 29.92C50.03 30.09 49.89 30.22 49.71 30.22C49.56 30.22 49.3 30.24 48.94 30.28C48.58 30.32 48.13 30.34 47.59 30.35C47.05 30.36 46.48 30.37 45.88 30.37M38.49 26.75H43.41C44.01 26.75 44.46 26.75 44.74 26.73C44.92 26.73 45.11 26.71 45.28 26.67V26.44C45.28 26.15 45.22 25.85 45.13 25.58C44.71 24.26 43.47 23.39 42.09 23.44C40.8 23.36 39.58 24.06 38.99 25.21C38.73 25.69 38.56 26.21 38.48 26.75" fill="#9999FF"/>
</g>
</g>
</g>
<defs>
<clipPath id="clip0_1_1756">
<rect width="56" height="54.6" fill="white"/>
</clipPath>
</defs>
</svg>
