<svg width="56" height="55" viewBox="0 0 56 55" fill="none" xmlns="http://www.w3.org/2000/svg">
<mask id="mask0_1_1208" style="mask-type:luminance" maskUnits="userSpaceOnUse" x="0" y="0" width="56" height="55">
<path d="M56 0H0V54.6H56V0Z" fill="white"/>
</mask>
<g mask="url(#mask0_1_1208)">
<mask id="mask1_1_1208" style="mask-type:luminance" maskUnits="userSpaceOnUse" x="0" y="0" width="56" height="55">
<path d="M56 0H0V54.6H56V0Z" fill="white"/>
</mask>
<g mask="url(#mask1_1_1208)">
<path d="M46.08 54.6H9.92C4.44 54.6 0 50.15 0 44.68V9.91C0 4.43 4.44 -0.0100098 9.92 -0.0100098H46.09C51.57 -0.0100098 56.01 4.43 56.01 9.91V44.68C56.01 50.16 51.57 54.6 46.09 54.6" fill="#000B1D"/>
<path d="M43.54 41.05H36.89C36.27 41.05 35.75 40.7 35.53 40.17L28.31 23.29C28.18 22.99 27.83 22.98 27.7 23.29L23.2 34.01C23.09 34.26 23.28 34.54 23.55 34.54H28.5C28.81 34.54 29.08 34.72 29.2 35.01L31.37 39.83C31.62 40.42 31.19 41.07 30.55 41.07H12.54C11.96 41.07 11.57 40.5 11.79 39.93L23.24 12.65C23.46 12.08 24.03 11.68 24.69 11.68H31.3C31.96 11.68 32.53 12.07 32.75 12.65L44.28 39.93C44.5 40.5 44.11 41.07 43.53 41.07" fill="#EB1000"/>
</g>
</g>
</svg>
