<svg width="56" height="54" viewBox="0 0 56 54" fill="none" xmlns="http://www.w3.org/2000/svg">
<g clip-path="url(#clip0_1_2582)">
<mask id="mask0_1_2582" style="mask-type:luminance" maskUnits="userSpaceOnUse" x="0" y="0" width="56" height="54">
<path d="M56 0H0V54H56V0Z" fill="white"/>
</mask>
<g mask="url(#mask0_1_2582)">
<mask id="mask1_1_2582" style="mask-type:luminance" maskUnits="userSpaceOnUse" x="0" y="0" width="56" height="54">
<path d="M56 0H0V54H56V0Z" fill="white"/>
</mask>
<g mask="url(#mask1_1_2582)">
<path d="M9.91 0H46.08C51.55 0 55.99 4.44 55.99 9.91V44.08C55.99 49.56 51.55 53.99 46.08 53.99H9.91C4.44 53.99 0 49.55 0 44.08V9.91C0 4.44 4.44 0 9.91 0Z" fill="#1E3101"/>
<path d="M17.23 38.37C15.97 38.38 14.71 38.26 13.47 38.02C12.49 37.83 11.54 37.53 10.64 37.11C10.42 36.98 10.31 36.73 10.34 36.48V32.08C10.34 32 10.37 31.92 10.43 31.88C10.51 31.84 10.6 31.85 10.67 31.9C11.69 32.54 12.8 33.02 13.96 33.34C15.07 33.65 16.21 33.82 17.36 33.82C18.41 33.91 19.46 33.68 20.38 33.17C20.94 32.82 21.28 32.22 21.29 31.56C21.29 31.16 21.19 30.77 20.99 30.43C20.72 30.03 20.37 29.69 19.95 29.45C19.3 29.05 18.62 28.72 17.91 28.45L16.06 27.67C14.79 27.16 13.6 26.47 12.53 25.62C11.76 25 11.15 24.19 10.77 23.27C10.44 22.41 10.28 21.49 10.29 20.57C10.24 17.9 11.8 15.45 14.25 14.37C15.79 13.69 17.46 13.37 19.13 13.43C20.24 13.43 21.34 13.5 22.44 13.65C23.29 13.75 24.12 13.98 24.9 14.35C25.07 14.45 25.17 14.63 25.16 14.83V18.87C25.16 18.98 25.17 19.11 25.06 19.18C24.98 19.23 24.9 19.19 24.83 19.15C24.01 18.73 23.14 18.42 22.24 18.23C21.23 18.01 20.2 17.89 19.17 17.9C18.56 17.89 17.95 17.95 17.36 18.09C16.94 18.18 16.53 18.34 16.16 18.55C15.87 18.72 15.63 18.96 15.48 19.25C15.34 19.52 15.26 19.82 15.26 20.12C15.26 20.5 15.37 20.87 15.59 21.18C15.9 21.56 16.27 21.87 16.7 22.11C17.4 22.51 18.11 22.87 18.85 23.2L20.22 23.72C21.59 24.24 22.87 24.96 24.03 25.85C24.86 26.5 25.52 27.33 25.95 28.29C26.32 29.19 26.51 30.15 26.51 31.12C26.54 32.49 26.13 33.83 25.34 34.95C24.52 36.08 23.4 36.96 22.1 37.48C20.55 38.11 18.89 38.41 17.22 38.37" fill="#99E83F"/>
<path d="M37.03 19.24C38.57 19.17 40.09 19.52 41.45 20.24C42.54 20.87 43.41 21.81 43.95 22.94C44.51 24.13 44.78 25.44 44.76 26.75V33.89C44.76 34.36 44.76 34.8 44.78 35.22C44.79 35.64 44.81 36.07 44.84 36.52C44.84 36.62 44.82 36.68 44.77 36.7C43.66 37.12 42.67 37.45 41.81 37.7C40.99 37.94 40.14 38.11 39.29 38.22C38.43 38.32 37.57 38.37 36.7 38.37C35.42 38.39 34.14 38.16 32.94 37.7C31.86 37.29 30.92 36.58 30.22 35.67C29.5 34.66 29.13 33.43 29.18 32.19C29.14 30.99 29.52 29.8 30.27 28.86C31.06 27.93 32.09 27.24 33.25 26.86C34.65 26.39 36.11 26.17 37.58 26.19H38.93C39.21 26.19 39.49 26.19 39.76 26.23V26.01C39.75 25.79 39.7 25.57 39.63 25.36C39.53 25.06 39.36 24.78 39.13 24.56C38.83 24.28 38.47 24.07 38.08 23.95C37.49 23.77 36.87 23.69 36.25 23.71C35.36 23.71 34.46 23.79 33.59 23.97C32.82 24.13 32.06 24.37 31.33 24.67C31.26 24.7 31.18 24.7 31.11 24.67C31.03 24.64 30.99 24.57 31 24.49V20.75C30.99 20.57 31.09 20.41 31.26 20.34C32.14 19.95 33.07 19.67 34.02 19.51C35.02 19.33 36.02 19.23 37.04 19.23M39.77 34.04V30.12C39.47 30.07 39.19 30.03 38.92 30.01C38.65 29.99 38.32 29.97 37.92 29.97C36.94 29.89 35.96 30.09 35.09 30.56C34.55 30.92 34.24 31.54 34.26 32.19C34.26 32.57 34.36 32.95 34.57 33.26C34.83 33.62 35.19 33.9 35.61 34.06C36.19 34.29 36.82 34.4 37.44 34.37C37.86 34.37 38.28 34.34 38.7 34.28C39.06 34.23 39.42 34.15 39.77 34.04Z" fill="#99E83F"/>
</g>
</g>
</g>
<defs>
<clipPath id="clip0_1_2582">
<rect width="56" height="54" fill="white"/>
</clipPath>
</defs>
</svg>
