<svg width="56" height="55" viewBox="0 0 56 55" fill="none" xmlns="http://www.w3.org/2000/svg">
<g clip-path="url(#clip0_1_2501)">
<path d="M46.08 0H9.92C4.44134 0 0 4.44134 0 9.92V44.68C0 50.1587 4.44134 54.6 9.92 54.6H46.08C51.5587 54.6 56 50.1587 56 44.68V9.92C56 4.44134 51.5587 0 46.08 0Z" fill="#1E3101"/>
<path d="M7.16003 14.21C7.17003 14.07 7.30003 13.97 7.43003 13.98C7.43003 13.98 7.43003 13.98 7.44003 13.98H14.01C14.19 13.96 14.36 14.07 14.4 14.24C14.57 14.89 14.77 15.67 15.01 16.59C15.25 17.5 15.5 18.51 15.78 19.61C16.05 20.71 16.33 21.84 16.62 22.99C16.91 24.14 17.19 25.26 17.46 26.35C17.73 27.44 17.97 28.44 18.16 29.36C18.35 30.27 18.5 31.03 18.62 31.63H18.66C18.75 31.1 18.92 30.4 19.16 29.53C19.4 28.65 19.67 27.67 19.98 26.58C20.29 25.49 20.6 24.37 20.93 23.22C21.25 22.07 21.57 20.93 21.88 19.8C22.19 18.67 22.48 17.63 22.75 16.66C23.02 15.7 23.24 14.89 23.41 14.24C23.43 14.08 23.57 13.97 23.73 13.98H30.12C30.28 13.96 30.42 14.07 30.44 14.22C30.44 14.22 30.44 14.23 30.44 14.24L31.3 38.25C31.33 38.34 31.3 38.43 31.25 38.49C31.19 38.55 31.11 38.59 31.02 38.58H26.38C26.32 38.58 26.25 38.56 26.2 38.52C26.15 38.47 26.12 38.39 26.13 38.31C26.13 37.03 26.13 35.69 26.11 34.29C26.1 32.89 26.08 31.48 26.06 30.06C26.04 28.65 26.04 27.29 26.06 25.98C26.08 24.68 26.1 23.48 26.1 22.37C26.1 21.27 26.1 20.31 26.12 19.5C26.13 18.69 26.14 18.08 26.14 17.68H26.1C25.96 18.31 25.77 19.13 25.53 20.14C25.29 21.15 25.01 22.29 24.69 23.56C24.37 24.82 24.02 26.13 23.66 27.49C23.29 28.84 22.93 30.18 22.59 31.51C22.24 32.84 21.91 34.08 21.59 35.23C21.27 36.38 21 37.4 20.79 38.27C20.75 38.45 20.58 38.57 20.4 38.57H16.37C16.17 38.6 15.98 38.47 15.94 38.27C15.73 37.39 15.48 36.38 15.21 35.23C14.94 34.08 14.66 32.88 14.37 31.62C14.08 30.37 13.78 29.08 13.46 27.77C13.14 26.46 12.84 25.18 12.55 23.96C12.26 22.73 12.01 21.58 11.78 20.5C11.55 19.42 11.35 18.47 11.16 17.64H11.09V20.61C11.09 21.76 11.07 23.03 11.04 24.42C11 25.81 10.97 27.26 10.93 28.78C10.89 30.3 10.85 31.86 10.81 33.48C10.76 35.1 10.7 36.69 10.63 38.27C10.63 38.47 10.53 38.57 10.34 38.57H6.20003C6.12003 38.57 6.04003 38.55 5.97003 38.51C5.91003 38.47 5.89003 38.38 5.92003 38.23L7.20003 14.19L7.16003 14.21Z" fill="#99E83F"/>
<path d="M42.42 38.97C40.69 39 38.98 38.64 37.4 37.92C35.93 37.24 34.71 36.13 33.89 34.75C33.04 33.34 32.61 31.56 32.61 29.43C32.6 27.71 33.04 26.01 33.89 24.51C34.77 22.98 36.06 21.73 37.61 20.9C39.24 20 41.2 19.55 43.51 19.55C43.63 19.55 43.8 19.55 44 19.57C44.2 19.58 44.44 19.6 44.71 19.63V12.23C44.71 12.06 44.79 11.97 44.94 11.97H49.67C49.78 11.95 49.88 12.03 49.9 12.14C49.9 12.16 49.9 12.18 49.9 12.2V34.4C49.9 34.83 49.92 35.29 49.96 35.79C50 36.29 50.03 36.74 50.05 37.14C50.05 37.3 49.97 37.45 49.82 37.52C48.6 38.03 47.33 38.41 46.03 38.65C44.84 38.87 43.63 38.98 42.42 38.99V38.97ZM44.71 34.31V24.05C44.51 23.99 44.3 23.96 44.09 23.94C43.83 23.91 43.58 23.9 43.32 23.9C42.41 23.9 41.51 24.1 40.69 24.5C39.89 24.9 39.21 25.49 38.72 26.23C38.21 26.98 37.95 27.97 37.95 29.2C37.93 30.02 38.07 30.83 38.34 31.6C38.57 32.22 38.93 32.78 39.39 33.25C39.84 33.68 40.38 34 40.97 34.19C41.59 34.39 42.25 34.49 42.9 34.49C43.25 34.49 43.58 34.48 43.88 34.45C44.16 34.43 44.44 34.38 44.71 34.3V34.31Z" fill="#99E83F"/>
</g>
<defs>
<clipPath id="clip0_1_2501">
<rect width="56" height="54.6" fill="white"/>
</clipPath>
</defs>
</svg>
