<svg width="56" height="55" viewBox="0 0 56 55" fill="none" xmlns="http://www.w3.org/2000/svg">
<g clip-path="url(#clip0_1_1903)">
<mask id="mask0_1_1903" style="mask-type:luminance" maskUnits="userSpaceOnUse" x="0" y="0" width="56" height="55">
<path d="M56 0H0V54.6H56V0Z" fill="white"/>
</mask>
<g mask="url(#mask0_1_1903)">
<mask id="mask1_1_1903" style="mask-type:luminance" maskUnits="userSpaceOnUse" x="0" y="0" width="56" height="55">
<path d="M56 0H0V54.6H56V0Z" fill="white"/>
</mask>
<g mask="url(#mask1_1_1903)">
<path d="M9.92 0H46.09C51.56 0 56 4.44 56 9.92V44.69C56 50.17 51.56 54.61 46.08 54.61H9.92C4.44 54.6 0 50.16 0 44.68V9.92C0 4.44 4.44 0 9.92 0Z" fill="#000B1D"/>
<path d="M35.94 24.24H33.63C33.45 24.22 33.37 24.13 33.37 23.98V20.13C33.35 20 33.44 19.89 33.57 19.87C33.59 19.87 33.61 19.87 33.64 19.87H35.95V19.32C35.95 18.53 36.01 17.75 36.14 16.97C36.25 16.31 36.46 15.67 36.74 15.07C37.23 14.06 37.96 13.19 38.88 12.55C39.81 11.9 41.03 11.57 42.56 11.57C42.92 11.57 43.29 11.59 43.65 11.63C43.95 11.66 44.24 11.73 44.51 11.84C44.67 11.89 44.78 12.05 44.77 12.22V15.94C44.77 16.12 44.67 16.18 44.47 16.13C44.28 16.1 44.09 16.09 43.91 16.09H43.35C42.94 16.09 42.53 16.17 42.17 16.35C41.82 16.54 41.55 16.85 41.42 17.23C41.19 17.76 41.07 18.33 41.05 18.9V19.86H44.22C44.37 19.86 44.46 19.88 44.5 19.93C44.54 20 44.56 20.08 44.56 20.16V23.98C44.56 24.15 44.45 24.24 44.22 24.24H41.05V38.12C41.05 38.2 41.03 38.28 40.99 38.35C40.95 38.42 40.86 38.46 40.71 38.46H36.25C36.05 38.46 35.95 38.35 35.95 38.12V24.24H35.94Z" fill="white"/>
<path d="M13.3 38.29V14.28C13.3 14.11 13.37 14.02 13.53 14.02C13.93 14.02 14.41 14.02 14.96 14C15.51 13.99 16.11 13.98 16.74 13.96C17.38 13.95 18.05 13.94 18.77 13.92C19.48 13.91 20.19 13.9 20.89 13.9C22.79 13.9 24.4 14.14 25.7 14.61C26.87 15.01 27.95 15.66 28.84 16.53C29.6 17.28 30.18 18.18 30.55 19.18C30.9 20.15 31.08 21.17 31.08 22.21C31.08 24.21 30.62 25.87 29.69 27.17C28.76 28.48 27.45 29.47 25.93 30.01C24.24 30.62 22.46 30.92 20.67 30.89C20.12 30.89 19.73 30.89 19.51 30.87C19.28 30.86 18.95 30.85 18.5 30.85V38.25C18.52 38.41 18.41 38.56 18.25 38.59C18.22 38.59 18.19 38.59 18.17 38.59H13.59C13.41 38.59 13.33 38.49 13.33 38.29M18.49 18.53V26.31C18.81 26.34 19.12 26.35 19.39 26.35H20.63C21.54 26.36 22.45 26.24 23.32 25.97C24.06 25.75 24.73 25.32 25.24 24.73C25.73 24.15 25.97 23.35 25.97 22.33C25.99 21.6 25.8 20.89 25.42 20.26C25.03 19.66 24.46 19.19 23.79 18.93C22.92 18.59 21.98 18.43 21.05 18.46C20.45 18.46 19.92 18.46 19.45 18.48C18.99 18.49 18.67 18.51 18.49 18.54" fill="white"/>
</g>
</g>
</g>
<defs>
<clipPath id="clip0_1_1903">
<rect width="56" height="54.6" fill="white"/>
</clipPath>
</defs>
</svg>
