<svg width="56" height="55" viewBox="0 0 56 55" fill="none" xmlns="http://www.w3.org/2000/svg">
<g clip-path="url(#clip0_1_876)">
<mask id="mask0_1_876" style="mask-type:luminance" maskUnits="userSpaceOnUse" x="0" y="0" width="56" height="55">
<path d="M56 0H0V54.6H56V0Z" fill="white"/>
</mask>
<g mask="url(#mask0_1_876)">
<mask id="mask1_1_876" style="mask-type:luminance" maskUnits="userSpaceOnUse" x="0" y="0" width="56" height="55">
<path d="M56 0H0V54.6H56V0Z" fill="white"/>
</mask>
<g mask="url(#mask1_1_876)">
<path d="M9.92 0H46.09C51.56 0 56 4.44 56 9.92V44.69C56 50.17 51.56 54.61 46.08 54.61H9.92C4.44 54.6 0 50.16 0 44.68V9.92C0 4.44 4.44 0 9.92 0Z" fill="#00005B"/>
<path d="M22.64 32.79H13.96L12.18 38.27C12.13 38.48 11.94 38.62 11.73 38.61H7.34C7.09 38.61 7 38.47 7.08 38.2L14.62 16.67C14.69 16.44 14.77 16.24 14.85 15.96C14.95 15.46 15 14.95 15 14.44C14.98 14.31 15.07 14.2 15.2 14.18C15.22 14.18 15.24 14.18 15.27 14.18H21.24C21.41 14.18 21.52 14.24 21.54 14.37L30.04 38.25C30.12 38.5 30.04 38.63 29.82 38.63H24.94C24.77 38.65 24.61 38.54 24.56 38.37L22.66 32.82L22.64 32.79ZM15.33 28.16H21.27C21.12 27.66 20.94 27.1 20.74 26.47C20.54 25.84 20.33 25.17 20.1 24.46C19.87 23.75 19.65 23.03 19.42 22.32C19.19 21.61 18.99 20.92 18.8 20.25C18.61 19.59 18.44 18.98 18.29 18.43H18.25C18.04 19.44 17.77 20.45 17.46 21.44C17.11 22.57 16.75 23.72 16.39 24.9C16.03 26.08 15.67 27.17 15.32 28.17" fill="#9999FF"/>
<path d="M32.66 38.25V24.4C32.66 23.97 32.66 23.5 32.64 22.97C32.63 22.44 32.61 21.94 32.58 21.47C32.55 20.99 32.53 20.55 32.51 20.28C32.48 20.2 32.49 20.12 32.55 20.05C32.61 20 32.69 19.97 32.78 19.98H36.53C36.66 19.98 36.79 20 36.91 20.05C37.01 20.1 37.08 20.2 37.1 20.31C37.15 20.46 37.21 20.63 37.27 20.82C37.34 21.07 37.38 21.32 37.4 21.58C38.13 20.94 38.97 20.45 39.88 20.13C40.79 19.82 41.74 19.66 42.7 19.66C43.45 19.66 44.19 19.78 44.9 20.02C46.56 20.55 47.87 21.83 48.45 23.48C48.83 24.44 48.97 25.69 48.97 27.22V38.25C48.97 38.48 48.87 38.59 48.67 38.59L44.28 38.63C44.1 38.66 43.93 38.53 43.9 38.35C43.9 38.32 43.9 38.29 43.9 38.25V27.79C43.89 27.09 43.73 26.4 43.45 25.76C43.25 25.29 42.92 24.88 42.49 24.59C42.01 24.3 41.46 24.15 40.89 24.18C40.29 24.18 39.69 24.28 39.12 24.5C38.61 24.71 38.13 25 37.73 25.38V38.25C37.73 38.48 37.63 38.59 37.43 38.59H33C32.84 38.61 32.69 38.5 32.66 38.34C32.66 38.31 32.66 38.28 32.66 38.26" fill="#9999FF"/>
</g>
</g>
</g>
<defs>
<clipPath id="clip0_1_876">
<rect width="56" height="54.6" fill="white"/>
</clipPath>
</defs>
</svg>
