<svg width="56" height="55" viewBox="0 0 56 55" fill="none" xmlns="http://www.w3.org/2000/svg">
<g clip-path="url(#clip0_1_1044)">
<mask id="mask0_1_1044" style="mask-type:luminance" maskUnits="userSpaceOnUse" x="0" y="0" width="56" height="55">
<path d="M56 0H0V54.6H56V0Z" fill="white"/>
</mask>
<g mask="url(#mask0_1_1044)">
<mask id="mask1_1_1044" style="mask-type:luminance" maskUnits="userSpaceOnUse" x="0" y="0" width="56" height="55">
<path d="M56 0H0V54.6H56V0Z" fill="white"/>
</mask>
<g mask="url(#mask1_1_1044)">
<path d="M9.92 0H46.09C51.56 0 56 4.44 56 9.92V44.69C56 50.17 51.56 54.61 46.08 54.61H9.92C4.44 54.6 0 50.16 0 44.68V9.92C0 4.44 4.44 0 9.92 0Z" fill="#00005B"/>
<path d="M26.79 33.98V37.85C26.82 38.07 26.7 38.29 26.49 38.38C25.78 38.64 25.03 38.81 24.28 38.89C23.3 39.01 22.32 39.06 21.33 39.06C19.93 39.06 18.54 38.9 17.18 38.55C15.91 38.23 14.7 37.71 13.59 37.01C12.52 36.33 11.58 35.47 10.81 34.47C10.01 33.42 9.39999 32.24 9.00999 30.98C8.55999 29.52 8.34999 28 8.36999 26.47C8.36999 23.94 8.91999 21.72 10.02 19.8C11.12 17.89 12.75 16.33 14.72 15.33C16.96 14.18 19.45 13.6 21.97 13.64C22.94 13.64 23.91 13.68 24.88 13.79C25.55 13.86 26.21 14.01 26.85 14.24C26.99 14.35 27.06 14.52 27.04 14.69V18.91C27.04 19.14 26.95 19.21 26.78 19.14C26.07 18.81 25.31 18.58 24.54 18.46C23.63 18.32 22.72 18.25 21.8 18.25C20.3 18.22 18.82 18.58 17.51 19.29C16.34 19.94 15.37 20.91 14.73 22.09C14.05 23.39 13.72 24.85 13.75 26.32C13.73 27.37 13.89 28.41 14.22 29.4C14.51 30.24 14.95 31.01 15.52 31.69C16.04 32.32 16.68 32.84 17.4 33.23C18.11 33.61 18.86 33.89 19.64 34.08C20.39 34.29 21.17 34.4 21.95 34.43C22.8 34.43 23.64 34.4 24.49 34.32C25.18 34.23 25.86 34.05 26.51 33.8C26.61 33.73 26.68 33.71 26.74 33.74C26.8 33.81 26.83 33.9 26.81 33.98" fill="#9999FF"/>
<path d="M35.42 25.12V38.29C35.42 38.49 35.33 38.59 35.16 38.59H30.47C30.31 38.61 30.16 38.5 30.13 38.34C30.13 38.31 30.13 38.28 30.13 38.26V12.31C30.13 12.14 30.23 12.05 30.43 12.05H35.15C35.28 12.03 35.39 12.12 35.41 12.25C35.41 12.27 35.41 12.29 35.41 12.31L35.44 21.18C36.12 20.73 36.85 20.36 37.61 20.07C38.4 19.78 39.32 19.71 40.37 19.71C41.12 19.71 41.86 19.83 42.57 20.05C43.33 20.26 44.03 20.64 44.62 21.16C45.25 21.72 45.68 22.49 46.06 23.45C46.44 24.41 46.62 25.66 46.62 27.19V38.26C46.62 38.49 46.52 38.6 46.32 38.6H41.92C41.74 38.63 41.57 38.5 41.54 38.32C41.54 38.29 41.54 38.26 41.54 38.22V27.72C41.56 27.05 41.44 26.37 41.18 25.75C40.97 25.27 40.63 24.86 40.2 24.57C39.68 24.27 39.08 24.13 38.48 24.16C37.92 24.16 37.36 24.24 36.83 24.4C36.31 24.56 35.83 24.81 35.4 25.13" fill="#9999FF"/>
</g>
</g>
</g>
<defs>
<clipPath id="clip0_1_1044">
<rect width="56" height="54.6" fill="white"/>
</clipPath>
</defs>
</svg>
