<svg width="56" height="55" viewBox="0 0 56 55" fill="none" xmlns="http://www.w3.org/2000/svg">
<g clip-path="url(#clip0_1_1586)">
<mask id="mask0_1_1586" style="mask-type:luminance" maskUnits="userSpaceOnUse" x="0" y="0" width="56" height="55">
<path d="M56 0H0V54.6H56V0Z" fill="white"/>
</mask>
<g mask="url(#mask0_1_1586)">
<mask id="mask1_1_1586" style="mask-type:luminance" maskUnits="userSpaceOnUse" x="0" y="0" width="56" height="55">
<path d="M56 0H0V54.6H56V0Z" fill="white"/>
</mask>
<g mask="url(#mask1_1_1586)">
<path d="M9.92 0H46.09C51.56 0 56 4.44 56 9.92V44.69C56 50.17 51.56 54.61 46.08 54.61H9.92C4.44 54.6 0 50.16 0 44.68V9.92C0 4.44 4.44 0 9.92 0Z" fill="#49021F"/>
<path d="M22.52 14.28V38.21C22.52 38.46 22.41 38.59 22.18 38.59H17.63C17.43 38.59 17.33 38.46 17.33 38.21V14.28C17.33 14.08 17.44 13.98 17.67 13.98H22.21C22.36 13.96 22.49 14.06 22.51 14.21C22.51 14.24 22.51 14.26 22.51 14.28" fill="#FF3366"/>
<path d="M40.4401 34.19V38.06C40.4401 38.2 40.3701 38.33 40.2501 38.4C39.6101 38.64 38.9401 38.79 38.2601 38.85C37.5101 38.93 36.7801 38.96 36.0801 38.96C34.6601 38.98 33.2401 38.74 31.9101 38.25C30.7401 37.81 29.6701 37.12 28.7901 36.22C27.9301 35.34 27.2601 34.29 26.8201 33.14C26.3501 31.93 26.1101 30.64 26.1201 29.35C26.0901 27.58 26.5401 25.83 27.4401 24.3C28.3301 22.82 29.6101 21.62 31.1401 20.82C32.7301 19.97 34.5901 19.54 36.7201 19.54C37.4601 19.53 38.2001 19.57 38.9401 19.67C39.3701 19.74 39.8001 19.83 40.2201 19.95C40.3501 20.04 40.4301 20.2 40.4101 20.36L40.3701 24.23C40.3701 24.46 40.2701 24.54 40.0701 24.49C39.6601 24.34 39.2301 24.24 38.7901 24.17C38.1701 24.07 37.5401 24.03 36.9101 24.04C35.9501 24.02 35.0101 24.22 34.1301 24.6C33.3301 24.96 32.6501 25.55 32.1801 26.29C31.7001 27.04 31.4701 27.99 31.4701 29.14C31.4701 30.44 31.7501 31.47 32.3201 32.22C32.8601 32.95 33.6101 33.51 34.4601 33.82C35.3001 34.13 36.1801 34.29 37.0701 34.29C37.6701 34.29 38.2701 34.26 38.8701 34.2C39.3001 34.16 39.7301 34.08 40.1501 33.96C40.3501 33.91 40.4501 33.99 40.4501 34.19" fill="#FF3366"/>
</g>
</g>
</g>
<defs>
<clipPath id="clip0_1_1586">
<rect width="56" height="54.6" fill="white"/>
</clipPath>
</defs>
</svg>
