<svg width="56" height="55" viewBox="0 0 56 55" fill="none" xmlns="http://www.w3.org/2000/svg">
<g clip-path="url(#clip0_1_834)">
<mask id="mask0_1_834" style="mask-type:luminance" maskUnits="userSpaceOnUse" x="0" y="0" width="56" height="55">
<path d="M56 0H0V54.6H56V0Z" fill="white"/>
</mask>
<g mask="url(#mask0_1_834)">
<mask id="mask1_1_834" style="mask-type:luminance" maskUnits="userSpaceOnUse" x="0" y="0" width="56" height="55">
<path d="M56 0H0V54.6H56V0Z" fill="white"/>
</mask>
<g mask="url(#mask1_1_834)">
<path d="M9.92 0H46.09C51.56 0 56 4.44 56 9.92V44.69C56 50.17 51.56 54.61 46.08 54.61H9.92C4.44 54.6 0 50.16 0 44.68V9.92C0 4.44 4.44 0 9.92 0Z" fill="#00005B"/>
<path d="M22.5 32.76H13.82L12.05 38.26C12 38.47 11.81 38.61 11.6 38.6H7.2C6.95 38.6 6.86 38.46 6.94 38.19L14.45 16.64C14.52 16.41 14.6 16.19 14.68 15.91C14.78 15.41 14.83 14.9 14.83 14.39C14.81 14.26 14.9 14.15 15.03 14.13C15.05 14.13 15.07 14.13 15.1 14.13H21.07C21.24 14.13 21.35 14.19 21.37 14.32L29.9 38.24C29.98 38.49 29.9 38.62 29.67 38.62H24.79C24.62 38.64 24.46 38.53 24.41 38.36L22.49 32.79L22.5 32.76ZM15.17 28.12H21.11C20.96 27.62 20.78 27.06 20.58 26.43C20.38 25.81 20.17 25.13 19.94 24.42L19.26 22.28C19.03 21.57 18.83 20.88 18.64 20.21C18.45 19.55 18.28 18.94 18.13 18.39H18.09C17.88 19.4 17.61 20.41 17.3 21.4C16.95 22.53 16.59 23.68 16.23 24.86C15.87 26.04 15.51 27.13 15.16 28.13" fill="#9999FF"/>
<path d="M43.72 30.62H36.32C36.41 31.35 36.65 32.06 37.03 32.69C37.45 33.32 38.04 33.81 38.74 34.1C39.68 34.51 40.7 34.71 41.73 34.68C42.54 34.67 43.35 34.58 44.15 34.42C44.86 34.32 45.56 34.14 46.23 33.88C46.36 33.78 46.42 33.84 46.42 34.07V37.64C46.42 37.74 46.41 37.83 46.36 37.92C46.32 37.99 46.26 38.05 46.19 38.09C45.45 38.42 44.66 38.65 43.86 38.78C42.77 38.99 41.66 39.08 40.55 39.06C38.77 39.06 37.28 38.78 36.08 38.23C34.94 37.73 33.94 36.97 33.15 36.01C32.41 35.11 31.86 34.07 31.53 32.95C31.21 31.85 31.04 30.7 31.04 29.55C31.04 28.29 31.23 27.05 31.62 25.85C32 24.68 32.59 23.6 33.37 22.66C34.14 21.73 35.1 20.97 36.19 20.44C37.29 19.9 38.59 19.71 40.1 19.71C41.35 19.68 42.58 19.92 43.72 20.42C44.68 20.83 45.52 21.47 46.18 22.28C46.8 23.07 47.27 23.97 47.57 24.93C47.87 25.85 48.02 26.81 48.02 27.78C48.02 28.33 48 28.83 47.96 29.28C47.92 29.73 47.89 30.06 47.87 30.26C47.85 30.43 47.71 30.56 47.53 30.56C47.38 30.56 47.12 30.58 46.76 30.62C46.4 30.66 45.95 30.68 45.41 30.7C44.87 30.71 44.3 30.62 43.7 30.62M36.32 27.2H41.24C41.84 27.2 42.29 27.2 42.57 27.18C42.76 27.16 42.95 27.1 43.11 27V26.77C43.11 26.48 43.05 26.18 42.96 25.91C42.54 24.59 41.3 23.72 39.92 23.77C38.63 23.69 37.41 24.39 36.82 25.54C36.56 26.06 36.39 26.63 36.31 27.2" fill="#9999FF"/>
</g>
</g>
</g>
<defs>
<clipPath id="clip0_1_834">
<rect width="56" height="54.6" fill="white"/>
</clipPath>
</defs>
</svg>
