<svg width="56" height="55" viewBox="0 0 56 55" fill="none" xmlns="http://www.w3.org/2000/svg">
<g clip-path="url(#clip0_1_1799)">
<mask id="mask0_1_1799" style="mask-type:luminance" maskUnits="userSpaceOnUse" x="0" y="0" width="56" height="55">
<path d="M56 0H0V54.6H56V0Z" fill="white"/>
</mask>
<g mask="url(#mask0_1_1799)">
<mask id="mask1_1_1799" style="mask-type:luminance" maskUnits="userSpaceOnUse" x="0" y="0" width="56" height="55">
<path d="M56 0H0V54.6H56V0Z" fill="white"/>
</mask>
<g mask="url(#mask1_1_1799)">
<path d="M9.92 0H46.09C51.56 0 56 4.44 56 9.92V44.69C56 50.17 51.56 54.61 46.08 54.61H9.92C4.44 54.6 0 50.16 0 44.68V9.92C0 4.44 4.44 0 9.92 0Z" fill="#001E36"/>
<path d="M11.6 38.29V14.28C11.6 14.11 11.68 14.02 11.83 14.02C12.23 14.02 12.6 14.02 13.15 14C13.7 13.99 14.3 13.98 14.93 13.96C15.57 13.95 16.24 13.94 16.96 13.92C17.67 13.91 18.38 13.9 19.08 13.9C20.98 13.9 22.59 14.14 23.89 14.61C25.06 15.01 26.14 15.66 27.03 16.53C27.79 17.28 28.37 18.18 28.74 19.18C29.09 20.15 29.27 21.17 29.27 22.21C29.27 24.21 28.81 25.87 27.88 27.17C26.95 28.48 25.64 29.47 24.12 30.01C22.54 30.6 20.79 30.8 18.86 30.8C18.31 30.8 17.92 30.8 17.7 30.78C17.47 30.77 17.14 30.76 16.69 30.76V38.25C16.71 38.41 16.6 38.56 16.44 38.59C16.41 38.59 16.38 38.59 16.36 38.59H11.89C11.71 38.59 11.63 38.49 11.63 38.29M16.67 18.53V26.36C16.99 26.39 17.3 26.4 17.57 26.4H18.81C19.72 26.4 20.63 26.25 21.5 25.97C22.25 25.75 22.91 25.32 23.42 24.73C23.91 24.15 24.15 23.35 24.15 22.33C24.17 21.6 23.98 20.89 23.6 20.26C23.21 19.66 22.64 19.19 21.97 18.93C21.1 18.59 20.16 18.43 19.23 18.46C18.63 18.46 18.1 18.46 17.63 18.48C17.17 18.49 16.85 18.51 16.67 18.54" fill="#31A8FF"/>
<path d="M43.78 24.93C43.07 24.57 42.32 24.3 41.55 24.14C40.69 23.94 39.82 23.84 38.94 23.84C38.46 23.83 37.99 23.88 37.53 24.01C37.24 24.07 36.98 24.24 36.8 24.48C36.68 24.67 36.61 24.89 36.61 25.12C36.61 25.34 36.7 25.55 36.84 25.72C37.06 25.98 37.33 26.19 37.63 26.34C38.17 26.63 38.72 26.89 39.28 27.11C40.54 27.53 41.75 28.11 42.87 28.82C43.63 29.3 44.27 29.97 44.71 30.76C45.08 31.51 45.27 32.33 45.25 33.16C45.27 34.26 44.96 35.34 44.35 36.26C43.7 37.19 42.79 37.91 41.74 38.34C40.6 38.84 39.19 39.09 37.51 39.09C36.44 39.1 35.38 39 34.34 38.79C33.52 38.64 32.72 38.39 31.95 38.04C31.78 37.95 31.68 37.78 31.69 37.59V33.53C31.68 33.45 31.72 33.37 31.78 33.32C31.85 33.28 31.93 33.29 31.99 33.34C32.89 33.87 33.86 34.26 34.88 34.49C35.78 34.72 36.7 34.83 37.62 34.85C38.5 34.85 39.14 34.74 39.55 34.51C39.93 34.34 40.17 33.95 40.17 33.53C40.17 33.21 39.98 32.89 39.61 32.59C39.23 32.29 38.47 31.93 37.32 31.5C36.14 31.09 35.02 30.52 34 29.81C33.27 29.3 32.66 28.62 32.23 27.84C31.86 27.1 31.67 26.28 31.69 25.45C31.69 24.46 31.96 23.48 32.48 22.63C33.07 21.7 33.92 20.95 34.92 20.49C36.02 19.94 37.4 19.66 39.05 19.66C40.02 19.66 40.99 19.72 41.94 19.87C42.63 19.96 43.31 20.14 43.95 20.41C44.05 20.44 44.14 20.52 44.18 20.62C44.21 20.71 44.22 20.81 44.22 20.9V24.69C44.22 24.78 44.18 24.86 44.11 24.92C44.01 24.97 43.89 24.97 43.79 24.92" fill="#31A8FF"/>
</g>
</g>
</g>
<defs>
<clipPath id="clip0_1_1799">
<rect width="56" height="54.6" fill="white"/>
</clipPath>
</defs>
</svg>
