<svg width="56" height="55" viewBox="0 0 56 55" fill="none" xmlns="http://www.w3.org/2000/svg">
<g clip-path="url(#clip0_1_1086)">
<mask id="mask0_1_1086" style="mask-type:luminance" maskUnits="userSpaceOnUse" x="0" y="0" width="56" height="55">
<path d="M56 0H0V54.6H56V0Z" fill="white"/>
</mask>
<g mask="url(#mask0_1_1086)">
<mask id="mask1_1_1086" style="mask-type:luminance" maskUnits="userSpaceOnUse" x="0" y="0" width="56" height="55">
<path d="M56 0H0V54.6H56V0Z" fill="white"/>
</mask>
<g mask="url(#mask1_1_1086)">
<path d="M9.92 0H46.09C51.56 0 56 4.44 56 9.92V44.69C56 50.17 51.56 54.61 46.08 54.61H9.92C4.44 54.6 0 50.16 0 44.68V9.92C0 4.44 4.44 0 9.92 0Z" fill="#013301"/>
<path d="M8.16002 38.21V14.32C8.14002 14.17 8.25002 14.04 8.40002 14.02C8.40002 14.02 8.41002 14.02 8.42002 14.02C8.80002 14 9.35002 13.98 10.07 13.96C10.8 13.95 11.65 13.94 12.62 13.92C13.6 13.91 14.64 13.9 15.74 13.9C18.75 13.9 21.24 14.41 23.22 15.44C25.1 16.37 26.65 17.84 27.67 19.67C28.66 21.46 29.15 23.52 29.15 25.85C29.18 27.48 28.92 29.1 28.38 30.64C27.91 31.96 27.2 33.17 26.28 34.23C25.41 35.22 24.39 36.06 23.26 36.73C22.14 37.39 20.92 37.89 19.65 38.2C18.41 38.51 17.13 38.67 15.86 38.67H13.06C12.07 38.67 11.15 38.67 10.3 38.65C9.45002 38.64 8.81002 38.62 8.38002 38.59C8.23002 38.59 8.15002 38.46 8.15002 38.21M13.35 18.53V34.08C13.63 34.08 13.88 34.08 14.1 34.1C14.33 34.11 14.56 34.13 14.79 34.14C15.03 34.15 15.3 34.16 15.6 34.16C16.74 34.18 17.87 34 18.94 33.64C19.9 33.31 20.78 32.77 21.51 32.06C22.24 31.33 22.81 30.44 23.16 29.47C23.56 28.35 23.76 27.17 23.74 25.97C23.76 24.85 23.57 23.73 23.18 22.68C22.83 21.78 22.27 20.96 21.55 20.31C20.81 19.66 19.94 19.18 18.99 18.9C17.94 18.59 16.84 18.44 15.74 18.45C15.24 18.45 14.82 18.45 14.48 18.47C14.14 18.48 13.76 18.5 13.33 18.53" fill="#99E83F"/>
<path d="M31.46 38.25V24.28C31.46 23.85 31.46 23.38 31.44 22.85C31.43 22.32 31.41 21.82 31.38 21.35C31.35 20.87 31.33 20.5 31.31 20.22C31.28 20.14 31.29 20.06 31.35 19.99C31.41 19.94 31.49 19.91 31.58 19.92H35.49C35.62 19.92 35.75 19.94 35.87 19.99C35.97 20.04 36.04 20.14 36.06 20.25C36.11 20.4 36.17 20.57 36.23 20.76C36.3 20.99 36.34 21.22 36.36 21.46C37.09 20.82 37.93 20.33 38.84 20.01C39.75 19.7 40.7 19.54 41.66 19.54C42.41 19.54 43.15 19.66 43.86 19.9C45.52 20.43 46.83 21.71 47.41 23.36C47.79 24.32 47.97 25.57 47.97 27.1V38.26C47.97 38.49 47.87 38.6 47.67 38.6H43.13C42.95 38.63 42.78 38.5 42.75 38.32C42.75 38.29 42.75 38.26 42.75 38.22V27.55C42.77 26.9 42.66 26.24 42.41 25.63C42.21 25.16 41.88 24.75 41.45 24.46C40.97 24.17 40.41 24.02 39.85 24.05C39.25 24.05 38.65 24.15 38.08 24.37C37.57 24.58 37.09 24.88 36.69 25.25V38.25C36.69 38.48 36.59 38.59 36.39 38.59H31.81C31.65 38.61 31.5 38.5 31.47 38.34C31.47 38.31 31.47 38.28 31.47 38.26" fill="#99E83F"/>
</g>
</g>
</g>
<defs>
<clipPath id="clip0_1_1086">
<rect width="56" height="54.6" fill="white"/>
</clipPath>
</defs>
</svg>
