<svg width="56" height="55" viewBox="0 0 56 55" fill="none" xmlns="http://www.w3.org/2000/svg">
<g clip-path="url(#clip0_1_1670)">
<mask id="mask0_1_1670" style="mask-type:luminance" maskUnits="userSpaceOnUse" x="0" y="0" width="56" height="55">
<path d="M56 0H0V54.6H56V0Z" fill="white"/>
</mask>
<g mask="url(#mask0_1_1670)">
<mask id="mask1_1_1670" style="mask-type:luminance" maskUnits="userSpaceOnUse" x="0" y="0" width="56" height="55">
<path d="M56 0H0V54.6H56V0Z" fill="white"/>
</mask>
<g mask="url(#mask1_1_1670)">
<path d="M9.92 0H46.09C51.56 0 56 4.44 56 9.92V44.69C56 50.17 51.56 54.61 46.08 54.61H9.92C4.44 54.6 0 50.16 0 44.68V9.92C0 4.44 4.44 0 9.92 0Z" fill="#001E36"/>
<path d="M29.41 38.59H14.61C14.36 38.59 14.23 38.45 14.23 38.18V14.32C14.21 14.16 14.32 14.01 14.48 13.98C14.51 13.98 14.54 13.98 14.56 13.98H19.14C19.27 13.96 19.39 14.05 19.4 14.18C19.4 14.2 19.4 14.22 19.4 14.25V33.86H30.18C30.41 33.86 30.49 33.97 30.44 34.2L29.76 38.26C29.76 38.37 29.7 38.48 29.61 38.54C29.54 38.58 29.46 38.6 29.38 38.6" fill="#31A8FF"/>
<path d="M33.13 19.92H37.23C37.46 19.92 37.66 20.07 37.72 20.3C37.81 20.46 37.87 20.64 37.91 20.83C37.96 21.07 38 21.32 38.02 21.56C38.04 21.82 38.06 22.1 38.06 22.41C38.76 21.59 39.61 20.91 40.56 20.4C41.63 19.82 42.82 19.53 44.03 19.55C44.19 19.53 44.35 19.64 44.37 19.8C44.37 19.83 44.37 19.86 44.37 19.88V24.42C44.37 24.6 44.24 24.68 43.99 24.68C42.48 24.59 40.96 24.86 39.58 25.47C39.11 25.67 38.68 25.97 38.32 26.33V38.24C38.32 38.47 38.22 38.58 38.02 38.58H33.47C33.29 38.61 33.12 38.48 33.09 38.3C33.09 38.27 33.09 38.24 33.09 38.21V25.29C33.09 24.74 33.09 24.16 33.07 23.54C33.06 22.93 33.04 22.32 33.01 21.72C32.99 21.2 32.94 20.69 32.86 20.18C32.83 20.06 32.9 19.95 33.01 19.92C33.05 19.92 33.08 19.92 33.12 19.92" fill="#31A8FF"/>
</g>
</g>
</g>
<defs>
<clipPath id="clip0_1_1670">
<rect width="56" height="54.6" fill="white"/>
</clipPath>
</defs>
</svg>
