<svg width="56" height="55" viewBox="0 0 56 55" fill="none" xmlns="http://www.w3.org/2000/svg">
<g clip-path="url(#clip0_1_1316)">
<mask id="mask0_1_1316" style="mask-type:luminance" maskUnits="userSpaceOnUse" x="0" y="0" width="56" height="55">
<path d="M56 0H0V54.6H56V0Z" fill="white"/>
</mask>
<g mask="url(#mask0_1_1316)">
<mask id="mask1_1_1316" style="mask-type:luminance" maskUnits="userSpaceOnUse" x="0" y="0" width="56" height="55">
<path d="M56 0H0V54.6H56V0Z" fill="white"/>
</mask>
<g mask="url(#mask1_1_1316)">
<path d="M9.92 0H46.09C51.56 0 56 4.44 56 9.92V44.69C56 50.17 51.56 54.61 46.08 54.61H9.92C4.44 54.6 0 50.16 0 44.68V9.92C0 4.44 4.44 0 9.92 0Z" fill="#000B1D"/>
<path d="M30.87 22.86C29.56 27.24 28.46 31.47 27.16 35.6C26.42 37.93 25.6 40.16 24.58 41.57C23.45 43.16 21.33 44.68 18.78 44.68C16.98 44.68 15.21 43.83 15.21 41.96C15.21 40.79 16.41 39.7 17.37 39.7C17.78 39.68 18.17 39.9 18.36 40.27C19.24 41.86 20.09 42.78 20.48 42.78C20.87 42.78 21.19 42.25 21.82 39.95L26.46 22.87H23.12C22.87 22.12 23.22 21.24 23.65 21.06H26.97C27.61 19.01 28.36 16.92 29.42 15.04C31.01 12.18 33.55 9.92 37.05 9.92C39.7 9.92 40.8 11.19 40.8 12.82C40.76 14.55 39.25 15.44 38.54 15.44C37.97 15.44 37.69 15.02 37.52 14.42C36.92 12.16 36.14 11.49 35.68 11.49C35.22 11.49 34.51 12.34 33.74 14.1C32.72 16.33 32.03 18.75 31.39 21.08H35.43C35.68 21.57 35.48 22.59 34.88 22.88H30.89L30.87 22.86Z" fill="white"/>
</g>
</g>
</g>
<defs>
<clipPath id="clip0_1_1316">
<rect width="56" height="54.6" fill="white"/>
</clipPath>
</defs>
</svg>
