<svg width="56" height="55" viewBox="0 0 56 55" fill="none" xmlns="http://www.w3.org/2000/svg">
<g clip-path="url(#clip0_1_1955)">
<mask id="mask0_1_1955" style="mask-type:luminance" maskUnits="userSpaceOnUse" x="0" y="0" width="56" height="55">
<path d="M56 0H0V54.6H56V0Z" fill="white"/>
</mask>
<g mask="url(#mask0_1_1955)">
<mask id="mask1_1_1955" style="mask-type:luminance" maskUnits="userSpaceOnUse" x="0" y="0" width="56" height="55">
<path d="M56 0H0V54.6H56V0Z" fill="white"/>
</mask>
<g mask="url(#mask1_1_1955)">
<path d="M9.92 0H46.09C51.56 0 56 4.44 56 9.92V44.69C56 50.17 51.56 54.61 46.08 54.61H9.92C4.44 54.6 0 50.16 0 44.68V9.92C0 4.44 4.44 0 9.92 0Z" fill="#00005B"/>
<path d="M13.3101 38.29V14.28C13.3101 14.11 13.3901 14.02 13.5401 14.02C13.9401 14.02 14.3101 14.02 14.8601 14C15.4101 13.99 16.0101 13.98 16.6401 13.96C17.2801 13.95 17.9601 13.94 18.6701 13.92C19.3801 13.91 20.0901 13.9 20.7901 13.9C22.6901 13.9 24.3001 14.14 25.6001 14.61C26.7701 15.01 27.8501 15.66 28.7401 16.53C29.4901 17.28 30.0801 18.18 30.4501 19.18C30.8001 20.15 30.9801 21.17 30.9701 22.21C30.9701 24.21 30.5101 25.87 29.5801 27.17C28.6501 28.48 27.3401 29.47 25.8201 30.01C24.2401 30.6 22.4901 30.8 20.5601 30.8C20.0101 30.8 19.6201 30.8 19.4001 30.78C19.1701 30.77 18.8401 30.76 18.3901 30.76V38.25C18.4101 38.41 18.3001 38.56 18.1401 38.59C18.1101 38.59 18.0801 38.59 18.0601 38.59H13.5901C13.4101 38.59 13.3301 38.49 13.3301 38.29M18.3801 18.53V26.36C18.7101 26.39 19.0101 26.4 19.2801 26.4H20.5201C21.4301 26.4 22.3401 26.25 23.2101 25.97C23.9601 25.75 24.6201 25.32 25.1301 24.73C25.6201 24.15 25.8601 23.35 25.8601 22.33C25.8801 21.6 25.6901 20.89 25.3201 20.26C24.9301 19.66 24.3501 19.19 23.6901 18.93C22.8201 18.59 21.8801 18.43 20.9501 18.46C20.3501 18.46 19.8201 18.46 19.3501 18.48C18.8901 18.49 18.5701 18.51 18.3901 18.54" fill="#9999FF"/>
<path d="M34.21 19.87H38.31C38.54 19.87 38.74 20.03 38.8 20.25C38.87 20.44 38.92 20.63 38.94 20.82C38.99 21.06 39.03 21.31 39.05 21.55C39.08 21.81 39.09 22.09 39.09 22.4C39.79 21.58 40.64 20.9 41.59 20.39C42.67 19.79 43.89 19.48 45.13 19.48C45.29 19.46 45.44 19.57 45.47 19.73C45.47 19.76 45.47 19.79 45.47 19.81V24.35C45.47 24.53 45.34 24.61 45.09 24.61C44.24 24.58 43.39 24.66 42.56 24.85C41.89 24.98 41.23 25.19 40.61 25.47C40.16 25.67 39.75 25.97 39.41 26.33V38.24C39.41 38.47 39.31 38.58 39.11 38.58H34.51C34.33 38.61 34.16 38.48 34.13 38.3C34.13 38.27 34.13 38.24 34.13 38.21V25.29C34.13 24.74 34.13 24.16 34.11 23.54C34.1 22.93 34.08 22.32 34.05 21.72C34.05 21.19 34.01 20.66 33.95 20.13C33.92 20.01 33.99 19.9 34.11 19.87C34.14 19.87 34.18 19.87 34.22 19.87" fill="#9999FF"/>
</g>
</g>
</g>
<defs>
<clipPath id="clip0_1_1955">
<rect width="56" height="54.6" fill="white"/>
</clipPath>
</defs>
</svg>
