<svg width="56" height="54" viewBox="0 0 56 54" fill="none" xmlns="http://www.w3.org/2000/svg">
<g clip-path="url(#clip0_1_2541)">
<mask id="mask0_1_2541" style="mask-type:luminance" maskUnits="userSpaceOnUse" x="0" y="0" width="56" height="54">
<path d="M56 0H0V54H56V0Z" fill="white"/>
</mask>
<g mask="url(#mask0_1_2541)">
<mask id="mask1_1_2541" style="mask-type:luminance" maskUnits="userSpaceOnUse" x="0" y="0" width="56" height="54">
<path d="M56 0H0V54H56V0Z" fill="white"/>
</mask>
<g mask="url(#mask1_1_2541)">
<path d="M9.91 0H46.08C51.55 0 55.99 4.44 55.99 9.91V44.08C55.99 49.56 51.55 53.99 46.08 53.99H9.91C4.44 53.99 0 49.55 0 44.08V9.91C0 4.44 4.44 0 9.91 0Z" fill="#1E3101"/>
<path d="M13.3301 37.71V14.06C13.3301 13.89 13.4001 13.8 13.5501 13.8C13.9401 13.8 14.4101 13.8 14.9601 13.78C15.5001 13.77 16.0901 13.76 16.7201 13.74C17.3501 13.73 18.0201 13.71 18.7201 13.7C19.4201 13.69 20.1201 13.68 20.8101 13.68C22.4201 13.64 24.0201 13.88 25.5501 14.38C26.7101 14.77 27.7601 15.42 28.6401 16.27C29.3801 17.01 29.9601 17.9 30.3201 18.88C30.6701 19.84 30.8401 20.84 30.8401 21.86C30.9101 23.59 30.4301 25.3 29.4701 26.74C28.5501 28.03 27.2601 29 25.7701 29.53C24.1101 30.13 22.3501 30.42 20.5901 30.4C20.0501 30.4 19.6701 30.4 19.4401 30.38C19.2201 30.37 18.8801 30.36 18.4401 30.36V37.65C18.4601 37.81 18.3501 37.96 18.1901 37.98C18.1601 37.98 18.1301 37.98 18.1101 37.98H13.6001C13.4301 37.98 13.3401 37.88 13.3401 37.69M18.4301 18.24V25.9C18.7501 25.92 19.0501 25.94 19.3201 25.94H20.5401C21.4401 25.95 22.3301 25.83 23.1901 25.57C23.9201 25.35 24.5801 24.93 25.0801 24.35C25.6001 23.67 25.8501 22.83 25.8001 21.98C25.8201 21.26 25.6301 20.56 25.2601 19.95C24.8701 19.36 24.3101 18.9 23.6501 18.64C22.7901 18.31 21.8701 18.15 20.9501 18.18C20.3601 18.18 19.8301 18.18 19.3801 18.2C18.9201 18.21 18.6101 18.23 18.4401 18.26" fill="#99E83F"/>
<path d="M44.5601 34.34V37.37C44.5601 37.64 44.4601 37.8 44.2601 37.85C43.7701 38 43.2801 38.13 42.7801 38.22C42.1901 38.32 41.6001 38.37 41.0001 38.37C40.2001 38.37 39.4601 38.3 38.7101 38C38.0101 37.72 37.3501 37.32 36.8901 36.71C36.4101 36.08 36.1101 35.34 35.9601 34.57C35.8001 33.78 35.8501 33 35.8501 32.2V23.9H33.6701C33.4701 23.9 33.3701 23.79 33.3701 23.57V19.91C33.3701 19.71 33.4801 19.61 33.7001 19.61H35.8801C35.9001 19.19 35.9401 18.7 35.9701 18.15C36.0101 17.59 36.0601 17.04 36.1201 16.48C36.1801 15.92 36.2401 15.48 36.2901 15.13C36.3201 15.06 36.3501 14.99 36.4001 14.93C36.4501 14.87 36.5101 14.83 36.5801 14.8L40.9801 14.24C41.0401 14.21 41.1101 14.21 41.1701 14.24C41.2201 14.27 41.2401 14.34 41.2401 14.46C41.1901 15.03 41.1501 15.8 41.1301 16.77C41.1001 17.74 41.0801 18.69 41.0601 19.6H44.5001C44.6501 19.6 44.7201 19.7 44.7201 19.9V23.64C44.7401 23.76 44.6601 23.88 44.5301 23.9H41.0201V30.95C41.0201 31.83 40.9301 32.79 41.4301 33.57C41.6901 33.98 42.2301 34.13 42.6901 34.16C43.1401 34.18 43.6001 34.16 44.0501 34.1C44.1701 34.08 44.3301 34.03 44.4401 34.1C44.5001 34.14 44.5301 34.22 44.5301 34.34" fill="#99E83F"/>
</g>
</g>
</g>
<defs>
<clipPath id="clip0_1_2541">
<rect width="56" height="54" fill="white"/>
</clipPath>
</defs>
</svg>
