<svg width="56" height="54" viewBox="0 0 56 54" fill="none" xmlns="http://www.w3.org/2000/svg">
<g clip-path="url(#clip0_1_2460)">
<mask id="mask0_1_2460" style="mask-type:luminance" maskUnits="userSpaceOnUse" x="0" y="0" width="56" height="54">
<path d="M56 0H0V54H56V0Z" fill="white"/>
</mask>
<g mask="url(#mask0_1_2460)">
<mask id="mask1_1_2460" style="mask-type:luminance" maskUnits="userSpaceOnUse" x="0" y="0" width="56" height="54">
<path d="M56 0H0V54H56V0Z" fill="white"/>
</mask>
<g mask="url(#mask1_1_2460)">
<path d="M9.91 0H46.08C51.55 0 55.99 4.44 55.99 9.91V44.08C55.99 49.56 51.55 53.99 46.08 53.99H9.91C4.44 53.99 0 49.55 0 44.08V9.91C0 4.44 4.44 0 9.91 0Z" fill="#1E3101"/>
<path d="M10.55 37.63V14.1C10.54 13.95 10.64 13.82 10.79 13.81C10.79 13.81 10.8 13.81 10.81 13.81C11.18 13.79 11.72 13.77 12.44 13.75C13.16 13.74 13.99 13.72 14.96 13.71C15.92 13.7 16.95 13.69 18.03 13.69C20.57 13.6 23.1 14.12 25.39 15.21C27.24 16.13 28.77 17.58 29.77 19.37C30.77 21.24 31.27 23.34 31.23 25.46C31.26 27.06 31 28.66 30.47 30.18C30.01 31.48 29.3 32.68 28.4 33.71C27.54 34.68 26.54 35.51 25.42 36.17C24.31 36.82 23.12 37.31 21.87 37.61C20.65 37.91 19.39 38.07 18.13 38.07H15.37C14.39 38.07 13.49 38.07 12.65 38.05C11.81 38.03 11.18 38.02 10.76 37.99C10.61 37.99 10.54 37.87 10.54 37.62M15.66 18.24V33.56C15.93 33.56 16.18 33.56 16.4 33.58C16.62 33.59 16.85 33.6 17.08 33.62C17.31 33.63 17.58 33.64 17.88 33.64C19 33.66 20.11 33.48 21.17 33.12C22.12 32.8 22.99 32.27 23.7 31.57C24.42 30.85 24.98 29.98 25.33 29.02C25.73 27.92 25.92 26.75 25.9 25.58C25.92 24.48 25.73 23.38 25.34 22.34C24.99 21.45 24.44 20.65 23.73 20.01C23 19.37 22.15 18.89 21.21 18.62C20.17 18.32 19.09 18.17 18.01 18.18C17.52 18.18 17.1 18.18 16.77 18.2C16.44 18.21 16.06 18.23 15.64 18.25" fill="#99E83F"/>
<path d="M45.7799 24.42C45.0899 24.06 44.3399 23.8 43.5799 23.64C42.7399 23.45 41.8699 23.35 41.0099 23.34C40.5399 23.33 40.0699 23.38 39.6199 23.51C39.3299 23.57 39.0799 23.74 38.8999 23.97C38.7799 24.16 38.7099 24.38 38.7099 24.6C38.7099 24.82 38.7999 25.02 38.9299 25.19C39.5999 26.01 40.6599 26.33 41.6199 26.67C42.7599 27.07 43.8399 27.6 44.8699 28.24C45.6199 28.72 46.2499 29.37 46.6799 30.15C47.0499 30.88 47.2299 31.7 47.2199 32.52C47.2399 33.6 46.9299 34.67 46.3299 35.57C45.6899 36.49 44.7999 37.2 43.7599 37.62C42.4399 38.15 41.0199 38.4 39.5999 38.36C38.5499 38.37 37.4999 38.27 36.4699 38.06C35.6899 37.91 34.9399 37.66 34.2299 37.32C34.0599 37.24 33.9599 37.06 33.9699 36.88V32.88C33.9699 32.8 33.9999 32.72 34.0599 32.68C34.1199 32.64 34.2099 32.65 34.2599 32.7C35.1099 33.22 36.0299 33.6 36.9999 33.83C37.9999 34.06 39.0399 34.26 40.0699 34.19C40.8799 34.14 42.2299 33.94 42.2199 32.88C42.1799 32.37 41.8499 32.06 41.4299 31.81C40.6199 31.34 39.7599 31.03 38.8999 30.69C37.9299 30.31 36.9999 29.81 36.1399 29.22C35.4199 28.72 34.8199 28.05 34.3999 27.28C33.5599 25.73 33.7099 23.63 34.6399 22.16C35.2199 21.24 36.0599 20.51 37.0399 20.05C38.3199 19.47 39.7099 19.19 41.1099 19.24C42.0599 19.24 43.0199 19.3 43.9599 19.44C44.6199 19.52 45.2699 19.71 45.8799 19.98C45.9799 20.01 46.0599 20.08 46.0999 20.18C46.1199 20.27 46.1399 20.36 46.1399 20.46V24.2C46.1399 24.29 46.0999 24.37 46.0299 24.42C45.9499 24.47 45.8499 24.47 45.7699 24.42" fill="#99E83F"/>
</g>
</g>
</g>
<defs>
<clipPath id="clip0_1_2460">
<rect width="56" height="54" fill="white"/>
</clipPath>
</defs>
</svg>
