<svg width="56" height="55" viewBox="0 0 56 55" fill="none" xmlns="http://www.w3.org/2000/svg">
<g clip-path="url(#clip0_1_1712)">
<mask id="mask0_1_1712" style="mask-type:luminance" maskUnits="userSpaceOnUse" x="0" y="0" width="56" height="55">
<path d="M56 0H0V54.6H56V0Z" fill="white"/>
</mask>
<g mask="url(#mask0_1_1712)">
<mask id="mask1_1_1712" style="mask-type:luminance" maskUnits="userSpaceOnUse" x="0" y="0" width="56" height="55">
<path d="M56 0H0V54.6H56V0Z" fill="white"/>
</mask>
<g mask="url(#mask1_1_1712)">
<path d="M9.92 0H46.09C51.56 0 56 4.44 56 9.92V44.69C56 50.17 51.56 54.61 46.08 54.61H9.92C4.44 54.6 0 50.16 0 44.68V9.92C0 4.44 4.44 0 9.92 0Z" fill="#001E36"/>
<path d="M19.27 38.59H5.78995C5.55995 38.59 5.44995 38.45 5.44995 38.17L5.46995 14.33C5.46995 14.1 5.56995 13.99 5.77995 13.99H10.24C10.4 13.99 10.48 14.08 10.48 14.26L10.53 33.55H19.94C20.15 33.55 20.23 33.66 20.18 33.89L19.61 38.26C19.59 38.41 19.54 38.51 19.47 38.55C19.41 38.59 19.34 38.61 19.27 38.61" fill="#31A8FF"/>
<path d="M23.02 19.71H27.1C27.31 19.71 27.45 19.84 27.54 20.09C27.62 20.26 27.68 20.44 27.71 20.62C27.76 20.87 27.79 21.11 27.81 21.36C27.83 21.62 27.84 21.91 27.84 22.21C28.46 21.4 29.24 20.71 30.11 20.18C30.84 19.61 31.75 19.3 32.68 19.32C32.89 19.32 32.99 19.43 32.99 19.66V24.26C32.99 24.44 32.88 24.52 32.65 24.52C32.1 24.47 31.54 24.52 31.01 24.69C30.39 24.83 29.8 25.04 29.23 25.32C28.72 25.53 28.25 25.83 27.84 26.19V38.23C27.84 38.46 27.75 38.57 27.57 38.57H23.32C23.09 38.57 22.98 38.44 22.98 38.19V25.13C22.98 24.57 22.98 23.98 22.96 23.36C22.95 22.74 22.93 22.13 22.91 21.52C22.9 21 22.85 20.48 22.77 19.96C22.77 19.89 22.78 19.81 22.82 19.75C22.87 19.71 22.94 19.68 23.01 19.69" fill="#31A8FF"/>
<path d="M50.28 16.14C49.8 15.93 49.3 15.79 48.78 15.72C47.98 15.62 47.18 15.57 46.37 15.58C44.27 15.53 42.19 16.04 40.35 17.05C38.68 18.02 37.32 19.46 36.44 21.18C35.56 23.1 35.15 25.21 35.25 27.32C35.18 28.71 35.29 30.11 35.6 31.47C35.92 32.62 36.43 33.71 37.1 34.7C37.73 35.61 38.51 36.4 39.42 37.05C40.33 37.69 41.34 38.17 42.41 38.47C43.53 38.78 44.69 38.94 45.85 38.94C46.66 38.94 47.48 38.89 48.29 38.78C48.94 38.7 49.58 38.55 50.19 38.31C50.43 38.2 50.57 37.94 50.53 37.68V34.16C50.55 34.03 50.5 33.91 50.41 33.81C50.35 33.76 50.22 33.7 50.04 33.84C49.51 34.04 48.96 34.17 48.4 34.23C47.72 34.3 47.03 34.34 46.34 34.33C45.72 34.33 45.09 34.24 44.49 34.08C43.86 33.91 43.26 33.66 42.7 33.33C42.12 32.98 41.61 32.52 41.21 31.97C40.75 31.36 40.4 30.67 40.17 29.93C39.9 29.04 39.78 28.11 39.79 27.18C39.76 25.88 40.03 24.59 40.57 23.41C41.06 22.39 41.83 21.53 42.79 20.93C43.83 20.31 45.03 20 46.24 20.03C46.98 20.03 47.72 20.09 48.46 20.22C49.03 20.32 49.57 20.52 50.07 20.81C50.16 20.87 50.28 20.87 50.37 20.81C50.47 20.72 50.53 20.59 50.51 20.46V16.7C50.53 16.48 50.44 16.27 50.26 16.14" fill="#31A8FF"/>
</g>
</g>
</g>
<defs>
<clipPath id="clip0_1_1712">
<rect width="56" height="54.6" fill="white"/>
</clipPath>
</defs>
</svg>
