<svg width="56" height="55" viewBox="0 0 56 55" fill="none" xmlns="http://www.w3.org/2000/svg">
<g clip-path="url(#clip0_1_2165)">
<mask id="mask0_1_2165" style="mask-type:luminance" maskUnits="userSpaceOnUse" x="0" y="0" width="56" height="55">
<path d="M56 0H0V54.6H56V0Z" fill="white"/>
</mask>
<g mask="url(#mask0_1_2165)">
<mask id="mask1_1_2165" style="mask-type:luminance" maskUnits="userSpaceOnUse" x="0" y="0" width="56" height="55">
<path d="M56 0H0V54.6H56V0Z" fill="white"/>
</mask>
<g mask="url(#mask1_1_2165)">
<path d="M9.92 0H46.09C51.56 0 56 4.44 56 9.92V44.69C56 50.17 51.56 54.61 46.08 54.61H9.92C4.44 54.6 0 50.16 0 44.68V9.92C0 4.44 4.44 0 9.92 0Z" fill="#000B1D"/>
<path d="M9.89001 38.25V14.4C9.89001 14.17 9.96 14.05 10.12 14.02C10.55 13.99 11.2 13.98 12.07 13.96C12.95 13.95 13.9 13.94 14.93 13.92C15.96 13.91 16.9 13.9 17.75 13.9C19.8 13.9 21.44 14.13 22.65 14.58C23.86 15.03 24.8 15.6 25.45 16.29C26.05 16.9 26.5 17.64 26.76 18.45C26.97 19.12 27.09 19.82 27.1 20.52C27.11 21.27 26.99 22.02 26.72 22.72C26.51 23.3 26.2 23.84 25.82 24.32C25.53 24.69 25.19 25 24.81 25.26C25.34 25.54 25.84 25.89 26.29 26.29C26.87 26.81 27.35 27.45 27.7 28.15C28.13 29.05 28.33 30.04 28.3 31.04C28.32 32.47 27.88 33.87 27.04 35.02C26.2 36.17 25 37.07 23.43 37.71C21.86 38.35 19.99 38.67 17.81 38.67H15.31C14.52 38.67 13.79 38.67 13.13 38.65C12.47 38.64 11.89 38.62 11.4 38.61C10.91 38.6 10.49 38.59 10.14 38.59C9.97001 38.57 9.88 38.45 9.88 38.25M14.97 18.38V23.6H17.52C18.2 23.6 18.86 23.61 19.51 23.64C19.98 23.64 20.44 23.69 20.9 23.79C21.23 23.51 21.51 23.16 21.71 22.77C21.94 22.3 22.05 21.79 22.03 21.27C22.06 20.68 21.88 20.1 21.54 19.62C21.18 19.17 20.69 18.83 20.13 18.66C19.37 18.43 18.58 18.32 17.78 18.34H16.69C16.36 18.34 16.07 18.34 15.81 18.36C15.55 18.37 15.27 18.38 14.96 18.38M14.97 28.03V34.23C15.4 34.26 15.82 34.27 16.25 34.29C16.68 34.3 17.19 34.31 17.79 34.31C18.71 34.32 19.63 34.21 20.51 33.97C21.2 33.81 21.82 33.44 22.29 32.92C22.7 32.42 22.91 31.8 22.89 31.15C22.91 30.53 22.74 29.91 22.4 29.38C22.07 28.88 21.47 28.52 20.6 28.29C20.26 28.21 19.91 28.14 19.57 28.1C19.12 28.05 18.66 28.02 18.2 28.03H14.97Z" fill="white"/>
<path d="M43.4 30.63H36C36.09 31.33 36.33 32 36.71 32.6C37.13 33.23 37.72 33.72 38.42 34.01C39.18 34.36 40.18 34.54 41.41 34.54C42.22 34.54 43.03 34.47 43.83 34.33C44.58 34.2 45.32 33.97 46.03 33.67C46.16 33.57 46.22 33.63 46.22 33.86V37.43C46.22 37.53 46.21 37.63 46.16 37.71C46.12 37.78 46.06 37.84 45.99 37.88C45.21 38.25 44.39 38.52 43.55 38.69C42.46 38.89 41.35 38.99 40.24 38.97C38.46 38.97 36.97 38.69 35.77 38.14C34.63 37.64 33.63 36.88 32.84 35.92C32.1 35.02 31.55 33.98 31.22 32.86C30.9 31.76 30.73 30.61 30.73 29.46C30.73 28.2 30.92 26.95 31.31 25.76C31.69 24.6 32.28 23.51 33.06 22.57C33.83 21.64 34.79 20.88 35.88 20.35C37.1 19.79 38.44 19.51 39.79 19.54C41.04 19.51 42.27 19.75 43.41 20.25C44.37 20.69 45.22 21.35 45.87 22.19C46.49 22.98 46.96 23.88 47.26 24.84C47.56 25.76 47.71 26.73 47.71 27.69C47.71 28.24 47.69 28.74 47.65 29.19C47.61 29.64 47.58 29.97 47.56 30.17C47.54 30.34 47.4 30.47 47.22 30.47C47.07 30.47 46.81 30.49 46.45 30.53C46.09 30.57 45.64 30.59 45.1 30.6C44.56 30.61 43.99 30.62 43.39 30.62M36 26.98H40.92C41.52 26.98 41.97 26.98 42.25 26.96C42.43 26.96 42.62 26.94 42.79 26.9V26.67C42.79 26.38 42.73 26.09 42.64 25.81C42.22 24.49 40.98 23.62 39.6 23.67C38.31 23.59 37.09 24.28 36.5 25.44C36.24 25.92 36.07 26.44 35.99 26.98" fill="white"/>
</g>
</g>
</g>
<defs>
<clipPath id="clip0_1_2165">
<rect width="56" height="54.6" fill="white"/>
</clipPath>
</defs>
</svg>
