<svg width="56" height="55" viewBox="0 0 56 55" fill="none" xmlns="http://www.w3.org/2000/svg">
<g clip-path="url(#clip0_1_2335)">
<path d="M46.08 0H9.92C4.44134 0 0 4.44134 0 9.92V44.68C0 50.1587 4.44134 54.6 9.92 54.6H46.08C51.5587 54.6 56 50.1587 56 44.68V9.92C56 4.44134 51.5587 0 46.08 0Z" fill="#1E3101"/>
<path d="M41.53 18.41V15.25C41.53 13.81 40.71 12.5 39.42 11.87L29.64 7.11C28.6 6.61 27.39 6.61 26.35 7.11L16.57 11.87C15.3 12.49 14.48 13.77 14.46 15.19C14.46 15.21 14.46 15.23 14.46 15.25V19.68C14.46 20.66 15.12 21.51 16.06 21.76L35.25 26.77C35.41 26.81 35.43 27.02 35.28 27.09L28.93 30.1C28.34 30.38 27.65 30.38 27.06 30.1L21.47 27.4C20.73 27.04 20.26 26.29 20.26 25.47V25.13H14.46V28.27C14.46 29.71 15.29 31.03 16.58 31.65L26.36 36.37C27.39 36.87 28.59 36.87 29.62 36.37L39.4 31.65C40.64 31.05 41.45 29.82 41.52 28.45C41.52 28.39 41.52 28.33 41.52 28.26V23.96C41.52 22.98 40.86 22.13 39.92 21.88L20.62 16.81H20.68C20.68 16.81 20.64 16.81 20.63 16.81C20.53 16.74 20.53 16.58 20.65 16.51L27.05 13.38C27.64 13.09 28.34 13.09 28.93 13.38L34.52 16.1C35.26 16.46 35.73 17.21 35.73 18.03V18.41H41.53Z" fill="#99E83F"/>
<path d="M14.73 45.13L14.21 47C14.2 47.06 14.17 47.07 14.11 47.07H13.14C13.07 47.07 13.05 47.04 13.07 46.97L14.94 40.64C14.98 40.51 15 40.41 15.01 40.09C15.01 40.05 15.03 40.02 15.07 40.02H16.45C16.45 40.02 16.52 40.04 16.53 40.08L18.63 46.97C18.64 47.03 18.63 47.06 18.57 47.06H17.48C17.43 47.06 17.4 47.03 17.39 46.99L16.85 45.12H14.73V45.13ZM16.57 44.05C16.38 43.3 15.95 41.84 15.78 41.07H15.77C15.62 41.8 15.28 43.04 15 44.05H16.56H16.57Z" fill="white"/>
<path d="M19.33 46.83C19.28 46.8 19.26 46.76 19.26 46.69V45.65C19.26 45.65 19.3 45.58 19.34 45.61C19.84 45.94 20.41 46.1 20.96 46.1C21.75 46.1 22.07 45.73 22.07 45.27C22.07 44.87 21.87 44.56 21.11 44.13L20.72 43.93C19.59 43.32 19.27 42.67 19.27 41.89C19.27 40.81 20.03 39.94 21.5 39.94C22.14 39.94 22.6 40.03 22.88 40.18C22.93 40.2 22.94 40.24 22.94 40.3V41.28C22.94 41.28 22.9 41.36 22.86 41.32C22.52 41.11 22.03 41 21.52 41C20.68 41 20.42 41.43 20.42 41.8C20.42 42.2 20.62 42.48 21.37 42.88L21.72 43.06C22.96 43.72 23.28 44.39 23.28 45.17C23.28 46.35 22.39 47.16 20.95 47.16C20.32 47.16 19.72 47.04 19.33 46.82V46.83Z" fill="white"/>
<path d="M24.16 46.83C24.11 46.8 24.09 46.76 24.09 46.69V45.65C24.09 45.65 24.13 45.58 24.17 45.61C24.67 45.94 25.24 46.1 25.79 46.1C26.58 46.1 26.9 45.73 26.9 45.27C26.9 44.87 26.7 44.56 25.94 44.13L25.55 43.93C24.42 43.32 24.1 42.67 24.1 41.89C24.1 40.81 24.86 39.94 26.33 39.94C26.97 39.94 27.43 40.03 27.71 40.18C27.76 40.2 27.77 40.24 27.77 40.3V41.28C27.77 41.28 27.73 41.36 27.69 41.32C27.35 41.11 26.86 41 26.35 41C25.51 41 25.25 41.43 25.25 41.8C25.25 42.2 25.45 42.48 26.2 42.88L26.55 43.06C27.79 43.72 28.11 44.39 28.11 45.17C28.11 46.35 27.22 47.16 25.78 47.16C25.15 47.16 24.55 47.04 24.16 46.82V46.83Z" fill="white"/>
<path d="M33.0699 46.99C33.0599 47.05 33.0399 47.07 32.9699 47.07H29.2499C29.1899 47.07 29.1599 47.05 29.1599 46.98V40.11C29.1599 40.05 29.1699 40.03 29.2399 40.03H32.8399C32.8999 40.03 32.9199 40.04 32.9299 40.1L33.0299 41.02C33.0299 41.07 33.0299 41.11 32.9599 41.11H30.3399V42.94H32.6999C32.7499 42.94 32.7799 42.96 32.7799 43.02V43.94C32.7799 44 32.7499 44.02 32.6999 44.02H30.3499V46H33.1399C33.2099 46 33.2199 46.02 33.2099 46.08L33.0699 47V46.99Z" fill="white"/>
<path d="M35.47 41.11H33.65C33.59 41.11 33.57 41.09 33.58 41.02L33.71 40.11C33.72 40.05 33.74 40.03 33.8 40.03H38.37C38.43 40.03 38.46 40.05 38.47 40.11L38.55 41.01C38.56 41.08 38.53 41.1 38.47 41.1H36.65V46.97C36.65 47.03 36.62 47.06 36.56 47.06H35.54C35.47 47.06 35.45 47.04 35.45 46.97V41.09L35.47 41.11Z" fill="white"/>
<path d="M39.17 46.83C39.12 46.8 39.1 46.76 39.1 46.69V45.65C39.1 45.65 39.14 45.58 39.18 45.61C39.68 45.94 40.25 46.1 40.8 46.1C41.59 46.1 41.91 45.73 41.91 45.27C41.91 44.87 41.71 44.56 40.95 44.13L40.56 43.93C39.43 43.32 39.11 42.67 39.11 41.89C39.11 40.81 39.87 39.94 41.34 39.94C41.98 39.94 42.44 40.03 42.72 40.18C42.77 40.2 42.78 40.24 42.78 40.3V41.28C42.78 41.28 42.74 41.36 42.7 41.32C42.36 41.11 41.87 41 41.36 41C40.52 41 40.26 41.43 40.26 41.8C40.26 42.2 40.46 42.48 41.21 42.88L41.56 43.06C42.8 43.72 43.12 44.39 43.12 45.17C43.12 46.35 42.23 47.16 40.79 47.16C40.16 47.16 39.56 47.04 39.17 46.82V46.83Z" fill="white"/>
</g>
<defs>
<clipPath id="clip0_1_2335">
<rect width="56" height="54.6" fill="white"/>
</clipPath>
</defs>
</svg>
