<svg width="56" height="54" viewBox="0 0 56 54" fill="none" xmlns="http://www.w3.org/2000/svg">
<g clip-path="url(#clip0_1_2385)">
<path d="M46.09 0H9.91C4.43686 0 0 4.43686 0 9.91V44.09C0 49.5631 4.43686 54 9.91 54H46.09C51.5631 54 56 49.5631 56 44.09V9.91C56 4.43686 51.5631 0 46.09 0Z" fill="#1E3101"/>
<path d="M45.14 22.79V18.79C45.14 16.97 44.1 15.31 42.46 14.51L30.08 8.48C28.77 7.84 27.23 7.84 25.92 8.48L13.54 14.51C11.93 15.3 10.89 16.92 10.87 18.71C10.87 18.74 10.87 18.76 10.87 18.79V24.4C10.87 25.64 11.7 26.72 12.9 27.03L37.2 33.37C37.4 33.42 37.42 33.69 37.24 33.78L29.2 37.59C28.45 37.95 27.58 37.95 26.84 37.59L19.76 34.17C18.82 33.72 18.22 32.76 18.22 31.72V31.28H10.88V35.25C10.88 37.08 11.93 38.74 13.57 39.53L25.95 45.5C27.26 46.13 28.78 46.13 30.08 45.5L42.46 39.53C44.03 38.77 45.06 37.21 45.14 35.48C45.14 35.4 45.14 35.32 45.14 35.24V29.79C45.14 28.55 44.31 27.47 43.11 27.16L18.67 20.74L18.75 20.76C18.75 20.76 18.7 20.74 18.68 20.73C18.55 20.64 18.55 20.43 18.71 20.36L26.81 16.39C27.56 16.02 28.44 16.02 29.19 16.39L36.27 19.84C37.21 20.3 37.8 21.25 37.8 22.29V22.78H45.14V22.79Z" fill="#99E83F"/>
</g>
<defs>
<clipPath id="clip0_1_2385">
<rect width="56" height="54" fill="white"/>
</clipPath>
</defs>
</svg>
