<svg width="56" height="55" viewBox="0 0 56 55" fill="none" xmlns="http://www.w3.org/2000/svg">
<g clip-path="url(#clip0_1_1503)">
<mask id="mask0_1_1503" style="mask-type:luminance" maskUnits="userSpaceOnUse" x="0" y="0" width="56" height="55">
<path d="M56 0H0V54.6H56V0Z" fill="white"/>
</mask>
<g mask="url(#mask0_1_1503)">
<mask id="mask1_1_1503" style="mask-type:luminance" maskUnits="userSpaceOnUse" x="0" y="0" width="56" height="55">
<path d="M56 0H0V54.6H56V0Z" fill="white"/>
</mask>
<g mask="url(#mask1_1_1503)">
<path d="M9.92 0H46.09C51.56 0 56 4.44 56 9.92V44.69C56 50.17 51.56 54.61 46.08 54.61H9.92C4.44 54.6 0 50.16 0 44.68V9.92C0 4.44 4.44 0 9.92 0Z" fill="#001E36"/>
<path d="M19.75 29.08V38.28C19.77 38.42 19.67 38.56 19.52 38.58C19.49 38.58 19.47 38.58 19.45 38.58H14.83C14.75 38.58 14.68 38.56 14.62 38.51C14.58 38.43 14.56 38.34 14.56 38.25V14.25C14.56 13.9 14.65 13.73 14.82 13.73H29.7C29.79 13.73 29.88 13.74 29.96 13.79C30.01 13.83 30.05 14 30.07 14.3L30.48 18.4C30.51 18.47 30.48 18.56 30.42 18.61C30.36 18.67 30.27 18.71 30.18 18.7H19.74V24.41H29.13C29.35 24.41 29.47 24.5 29.47 24.67V28.8C29.49 28.95 29.39 29.08 29.24 29.1C29.21 29.1 29.19 29.1 29.16 29.1H19.73L19.75 29.08Z" fill="#31A8FF"/>
<path d="M32.79 19.92H36.89C37.12 19.92 37.32 20.07 37.38 20.3C37.47 20.46 37.53 20.64 37.57 20.83C37.62 21.07 37.66 21.32 37.68 21.56C37.7 21.82 37.72 22.1 37.72 22.41C38.42 21.59 39.27 20.91 40.22 20.4C41.29 19.82 42.48 19.53 43.7 19.55C43.86 19.53 44.01 19.64 44.04 19.8C44.04 19.83 44.04 19.86 44.04 19.88V24.43C44.04 24.6 43.91 24.69 43.66 24.69C42.15 24.6 40.63 24.87 39.25 25.48C38.78 25.68 38.35 25.98 37.99 26.34V38.25C37.99 38.48 37.89 38.59 37.69 38.59H33.14C32.96 38.62 32.79 38.49 32.76 38.31C32.76 38.28 32.76 38.25 32.76 38.22V25.3C32.76 24.75 32.76 24.17 32.74 23.55C32.73 22.94 32.71 22.33 32.68 21.73C32.66 21.21 32.61 20.7 32.53 20.19C32.5 20.07 32.57 19.96 32.69 19.93C32.73 19.93 32.76 19.93 32.8 19.93L32.79 19.92Z" fill="#31A8FF"/>
</g>
</g>
</g>
<defs>
<clipPath id="clip0_1_1503">
<rect width="56" height="54.6" fill="white"/>
</clipPath>
</defs>
</svg>
