<svg width="56" height="55" viewBox="0 0 56 55" fill="none" xmlns="http://www.w3.org/2000/svg">
<g clip-path="url(#clip0_1_1128)">
<mask id="mask0_1_1128" style="mask-type:luminance" maskUnits="userSpaceOnUse" x="0" y="0" width="56" height="55">
<path d="M56 0H0V54.6H56V0Z" fill="white"/>
</mask>
<g mask="url(#mask0_1_1128)">
<mask id="mask1_1_1128" style="mask-type:luminance" maskUnits="userSpaceOnUse" x="0" y="0" width="56" height="55">
<path d="M56 0H0V54.6H56V0Z" fill="white"/>
</mask>
<g mask="url(#mask1_1_1128)">
<path d="M9.92 0H46.09C51.56 0 56 4.44 56 9.92V44.69C56 50.17 51.56 54.61 46.08 54.61H9.92C4.44 54.6 0 50.16 0 44.68V9.92C0 4.44 4.44 0 9.92 0Z" fill="#470137"/>
<path d="M5.31998 38.21V14.32C5.29998 14.17 5.40998 14.04 5.55998 14.02H5.56998C5.92998 14 6.44998 13.98 7.13998 13.96C7.82998 13.95 8.63998 13.94 9.56998 13.92C10.5 13.91 11.49 13.9 12.53 13.9C15.39 13.9 17.75 14.41 19.63 15.44C21.43 16.39 22.91 17.86 23.86 19.67C24.8 21.46 25.27 23.52 25.27 25.85C25.3 27.48 25.05 29.1 24.54 30.64C24.1 31.95 23.42 33.16 22.54 34.23C21.72 35.21 20.75 36.05 19.67 36.73C18.61 37.39 17.45 37.88 16.24 38.2C15.06 38.51 13.85 38.67 12.64 38.67H9.97998C9.03998 38.67 8.16998 38.67 7.35998 38.65C6.54998 38.64 5.93998 38.62 5.53998 38.59C5.39998 38.59 5.32998 38.46 5.32998 38.21M10.24 18.53V34.08C10.5 34.08 10.74 34.08 10.95 34.1C11.16 34.11 11.38 34.13 11.61 34.14C11.84 34.15 12.09 34.16 12.38 34.16C13.46 34.18 14.54 34 15.56 33.64C16.49 33.31 17.32 32.77 18 32.06C18.7 31.32 19.24 30.43 19.57 29.47C19.95 28.34 20.14 27.16 20.12 25.97C20.14 24.85 19.96 23.74 19.59 22.68C18.93 20.87 17.46 19.47 15.61 18.91C14.61 18.6 13.57 18.45 12.52 18.46C12.04 18.46 11.65 18.46 11.32 18.48C11 18.49 10.64 18.51 10.23 18.54" fill="#FF61F6"/>
<path d="M46.16 38.59H41.79C41.69 38.6 41.58 38.57 41.51 38.5C41.45 38.41 41.4 38.32 41.37 38.22C40.93 36.34 40.55 34.68 40.25 33.24C39.95 31.8 39.7 30.58 39.5 29.58C39.3 28.58 39.14 27.73 39.01 27.03C38.88 26.33 38.78 25.74 38.71 25.26H38.67C38.44 26.29 38.22 27.28 38.02 28.25C37.82 29.22 37.61 30.18 37.37 31.16C37.14 32.14 36.87 33.21 36.58 34.39C36.29 35.57 35.97 36.84 35.62 38.22C35.57 38.47 35.45 38.6 35.23 38.6H30.86C30.74 38.61 30.63 38.59 30.53 38.53C30.46 38.46 30.4 38.37 30.37 38.27L25.83 20.24C25.76 20.04 25.85 19.94 26.11 19.94H30.51C30.72 19.94 30.84 20.01 30.86 20.17C31.33 22.22 31.72 24 32.03 25.49C32.34 26.98 32.59 28.25 32.76 29.3C32.93 30.35 33.08 31.21 33.2 31.87C33.32 32.53 33.41 33.08 33.48 33.5H33.55C33.59 33.13 33.65 32.77 33.72 32.41C33.81 31.96 33.93 31.38 34.07 30.66C34.21 29.95 34.38 29.1 34.59 28.12C34.8 27.14 35.04 26.01 35.31 24.72C35.58 23.43 35.93 21.96 36.37 20.31C36.38 20.21 36.41 20.1 36.46 20.01C36.49 19.96 36.58 19.94 36.72 19.94H41.3C41.44 19.94 41.52 20.03 41.55 20.2C41.95 21.9 42.28 23.4 42.54 24.69C42.81 25.98 43.04 27.12 43.24 28.11C43.44 29.1 43.59 29.95 43.7 30.67C43.8 31.38 43.9 31.98 44 32.47C44.08 32.86 44.14 33.26 44.17 33.65H44.24C44.36 33.17 44.46 32.62 44.55 32C44.64 31.38 44.77 30.67 44.92 29.88C45.07 29.09 45.23 28.22 45.41 27.27C45.58 26.32 45.8 25.25 46.06 24.08C46.32 22.9 46.61 21.63 46.93 20.25C46.98 20.05 47.08 19.95 47.24 19.95H51.33C51.54 19.95 51.62 20.06 51.57 20.29L46.54 38.28C46.51 38.38 46.46 38.47 46.4 38.54C46.32 38.6 46.22 38.63 46.12 38.61" fill="#FF61F6"/>
</g>
</g>
</g>
<defs>
<clipPath id="clip0_1_1128">
<rect width="56" height="54.6" fill="white"/>
</clipPath>
</defs>
</svg>
