<svg width="56" height="55" viewBox="0 0 56 55" fill="none" xmlns="http://www.w3.org/2000/svg">
<g clip-path="url(#clip0_1_1002)">
<mask id="mask0_1_1002" style="mask-type:luminance" maskUnits="userSpaceOnUse" x="0" y="0" width="56" height="55">
<path d="M56 0H0V54.6H56V0Z" fill="white"/>
</mask>
<g mask="url(#mask0_1_1002)">
<mask id="mask1_1_1002" style="mask-type:luminance" maskUnits="userSpaceOnUse" x="0" y="0" width="56" height="55">
<path d="M56 0H0V54.6H56V0Z" fill="white"/>
</mask>
<g mask="url(#mask1_1_1002)">
<path d="M9.92 0H46.09C51.56 0 56 4.44 56 9.92V44.69C56 50.17 51.56 54.61 46.08 54.61H9.92C4.44 54.6 0 50.16 0 44.68V9.92C0 4.44 4.44 0 9.92 0Z" fill="#000B1D"/>
<path d="M27.51 33.89V37.76C27.54 37.98 27.42 38.2 27.21 38.29C26.47 38.55 25.71 38.72 24.94 38.8C23.97 38.92 23 38.97 22.03 38.97C20.63 38.97 19.24 38.81 17.88 38.46C16.61 38.14 15.4 37.62 14.29 36.92C13.22 36.24 12.28 35.38 11.51 34.38C10.71 33.33 10.1 32.15 9.70999 30.89C9.27999 29.42 9.06999 27.89 9.09999 26.35C9.09999 23.82 9.61999 21.63 10.72 19.72C11.82 17.81 13.45 16.25 15.42 15.25C17.45 14.19 19.93 13.58 22.74 13.58C23.71 13.57 24.69 13.62 25.65 13.73C26.31 13.81 26.95 13.97 27.56 14.21C27.7 14.32 27.77 14.49 27.75 14.66V18.83C27.75 19.05 27.65 19.13 27.48 19.05C26.78 18.73 26.03 18.51 25.26 18.39C24.35 18.25 23.44 18.18 22.52 18.18C20.84 18.18 19.4 18.52 18.2 19.19C17.03 19.84 16.06 20.81 15.42 21.99C14.74 23.29 14.41 24.75 14.44 26.22C14.42 27.27 14.58 28.31 14.91 29.3C15.2 30.14 15.64 30.91 16.21 31.59C16.73 32.22 17.37 32.74 18.09 33.13C18.79 33.52 19.55 33.82 20.33 34.03C21.09 34.21 21.86 34.31 22.64 34.31C23.48 34.31 24.31 34.28 25.14 34.2C25.85 34.11 26.55 33.95 27.22 33.7C27.32 33.63 27.39 33.61 27.45 33.64C27.51 33.71 27.54 33.79 27.52 33.88" fill="white"/>
<path d="M38.18 19.62C40.03 19.62 41.53 19.96 42.67 20.63C43.81 21.3 44.58 22.07 45.13 23.22C45.69 24.43 45.98 25.75 45.96 27.09V34.34C45.96 34.82 45.96 35.27 45.98 35.69C45.99 36.12 46.01 36.55 46.04 37.01C46.04 37.11 46.01 37.17 45.97 37.2C44.84 37.63 43.92 38.04 43.04 38.29C42.2 38.53 41.35 38.71 40.48 38.82C39.61 38.92 38.73 38.97 37.85 38.97C36.55 38.99 35.25 38.76 34.04 38.29C32.92 37.88 31.93 37.16 31.18 36.22C30.48 35.29 30.13 34.12 30.13 32.69C30.13 31.34 30.5 30.21 31.24 29.31C31.98 28.41 33.08 27.73 34.36 27.28C35.78 26.81 37.26 26.58 38.76 26.6H40.13C40.41 26.6 40.7 26.6 40.98 26.64V26.41C40.97 26.19 40.92 25.97 40.85 25.75C40.75 25.44 40.58 25.16 40.34 24.94C40.04 24.62 39.68 24.37 39.27 24.21C38.67 24.03 38.04 23.95 37.41 23.97C36.5 23.97 35.6 24.05 34.71 24.23C33.88 24.41 33.05 24.87 32.35 25.17C32.28 25.2 32.2 25.2 32.12 25.17C32.04 25.14 32 25.06 32.01 24.98V21.07C32 20.89 32.11 20.72 32.27 20.66C33.1 20.28 34.1 20.08 35.14 19.89C36.15 19.7 37.17 19.61 38.2 19.61M40.87 34.46V30.69C40.57 30.64 40.37 30.6 40.09 30.58C39.81 30.56 39.48 30.54 39.08 30.54C37.73 30.54 36.83 30.74 36.26 31.14C35.7 31.54 35.41 31.98 35.41 32.68C35.41 33.03 35.52 33.38 35.73 33.66C35.99 34.06 36.35 34.38 36.78 34.57C37.27 34.78 37.83 34.78 38.58 34.78C39.01 34.78 39.43 34.75 39.86 34.69C40.2 34.64 40.53 34.55 40.86 34.45" fill="white"/>
</g>
</g>
</g>
<defs>
<clipPath id="clip0_1_1002">
<rect width="56" height="54.6" fill="white"/>
</clipPath>
</defs>
</svg>
