<svg width="56" height="55" viewBox="0 0 56 55" fill="none" xmlns="http://www.w3.org/2000/svg">
<g clip-path="url(#clip0_1_1544)">
<mask id="mask0_1_1544" style="mask-type:luminance" maskUnits="userSpaceOnUse" x="0" y="0" width="56" height="55">
<path d="M56 0H0V54.6H56V0Z" fill="white"/>
</mask>
<g mask="url(#mask0_1_1544)">
<mask id="mask1_1_1544" style="mask-type:luminance" maskUnits="userSpaceOnUse" x="0" y="0" width="56" height="55">
<path d="M56 0H0V54.6H56V0Z" fill="white"/>
</mask>
<g mask="url(#mask1_1_1544)">
<path d="M9.92 0H46.09C51.56 0 56 4.44 56 9.92V44.69C56 50.17 51.56 54.61 46.08 54.61H9.92C4.44 54.6 0 50.16 0 44.68V9.92C0 4.44 4.44 0 9.92 0Z" fill="#330000"/>
<path d="M27.14 32.77H18.46L16.69 38.25C16.64 38.46 16.45 38.6 16.24 38.59H11.84C11.59 38.59 11.5 38.45 11.58 38.18L19.09 16.54C19.16 16.31 19.24 16.06 19.32 15.77C19.42 15.27 19.47 14.76 19.47 14.25C19.45 14.12 19.54 14.01 19.67 13.99C19.69 13.99 19.71 13.99 19.74 13.99H25.71C25.88 13.99 25.99 14.05 26.01 14.18L34.54 38.22C34.62 38.47 34.54 38.6 34.31 38.6H29.43C29.26 38.62 29.1 38.51 29.05 38.34L27.13 32.78L27.14 32.77ZM19.81 28.03H25.75C25.6 27.53 25.42 26.97 25.22 26.34C25.02 25.71 24.81 25.04 24.58 24.33C24.35 23.62 24.13 22.9 23.9 22.19C23.67 21.48 23.47 20.79 23.28 20.12C23.09 19.46 22.92 18.85 22.77 18.3H22.73C22.52 19.32 22.25 20.32 21.94 21.31C21.59 22.44 21.23 23.59 20.87 24.77C20.51 25.95 20.15 27.04 19.8 28.04" fill="#FF9A00"/>
<path d="M39.61 17.97C38.83 18 38.08 17.7 37.54 17.14C37 16.56 36.72 15.79 36.75 15C36.72 14.22 37.03 13.46 37.6 12.92C38.16 12.38 38.91 12.09 39.68 12.11C40.58 12.11 41.29 12.38 41.8 12.92C42.32 13.49 42.6 14.24 42.57 15C42.6 15.79 42.31 16.57 41.76 17.14C41.19 17.71 40.4 18 39.6 17.97M37.02 38.21V20.25C37.02 20.03 37.12 19.91 37.32 19.91H41.94C42.14 19.91 42.24 20.02 42.24 20.25V38.21C42.24 38.46 42.14 38.59 41.94 38.59H37.36C37.14 38.59 37.02 38.46 37.02 38.21Z" fill="#FF9A00"/>
</g>
</g>
</g>
<defs>
<clipPath id="clip0_1_1544">
<rect width="56" height="54.6" fill="white"/>
</clipPath>
</defs>
</svg>
