<svg width="56" height="55" viewBox="0 0 56 55" fill="none" xmlns="http://www.w3.org/2000/svg">
<g clip-path="url(#clip0_1_2125)">
<mask id="mask0_1_2125" style="mask-type:luminance" maskUnits="userSpaceOnUse" x="0" y="0" width="56" height="55">
<path d="M56 0H0V54.6H56V0Z" fill="white"/>
</mask>
<g mask="url(#mask0_1_2125)">
<mask id="mask1_1_2125" style="mask-type:luminance" maskUnits="userSpaceOnUse" x="0" y="0" width="56" height="55">
<path d="M56 0H0V54.6H56V0Z" fill="white"/>
</mask>
<g mask="url(#mask1_1_2125)">
<path d="M9.92 0H46.09C51.57 0 56.01 4.44 56.01 9.92V44.69C56.01 50.17 51.57 54.61 46.09 54.61H9.92C4.44 54.6 0 50.16 0 44.68V9.92C0 4.44 4.44 0 9.92 0Z" fill="#000B1D"/>
<path d="M20.82 38.97C19.54 38.98 18.26 38.86 17.01 38.61C16.02 38.42 15.05 38.11 14.14 37.69C13.94 37.59 13.84 37.38 13.84 37.05V32.58C13.84 32.5 13.87 32.42 13.93 32.37C14.01 32.33 14.1 32.34 14.17 32.39C15.21 33.04 16.33 33.53 17.51 33.86C18.64 34.18 19.8 34.34 20.97 34.35C22.4 34.35 23.42 34.13 24.03 33.69C24.6 33.34 24.94 32.72 24.95 32.06C24.95 31.66 24.85 31.26 24.65 30.91C24.38 30.5 24.02 30.16 23.6 29.92C22.94 29.52 22.25 29.18 21.53 28.91L19.65 28.12C18.12 27.47 16.93 26.77 16.06 26.03C15.27 25.4 14.66 24.58 14.28 23.64C13.95 22.76 13.78 21.83 13.79 20.9C13.74 18.18 15.32 15.7 17.81 14.61C19.14 13.97 20.79 13.65 22.77 13.65C23.89 13.65 25.02 13.72 26.13 13.88C27 13.98 27.84 14.22 28.63 14.59C28.8 14.69 28.91 14.88 28.89 15.08V19.33C28.89 19.4 28.85 19.46 28.8 19.5C28.74 19.56 28.66 19.56 28.56 19.48C27.73 19.05 26.84 18.73 25.93 18.54C24.91 18.31 23.86 18.2 22.81 18.2C22.19 18.19 21.57 18.25 20.97 18.39C20.54 18.49 20.13 18.64 19.75 18.86C19.46 19.03 19.22 19.28 19.06 19.57C18.91 19.84 18.84 20.14 18.83 20.45C18.83 20.83 18.94 21.21 19.17 21.52C19.48 21.91 19.86 22.22 20.3 22.46C21.01 22.87 21.73 23.24 22.48 23.57L23.87 24.1C25.52 24.78 26.81 25.5 27.74 26.26C28.58 26.92 29.25 27.77 29.69 28.74C30.07 29.65 30.26 30.63 30.25 31.61C30.28 33 29.86 34.36 29.07 35.5C28.24 36.65 27.1 37.54 25.78 38.07C24.38 38.67 22.72 38.97 20.82 38.97Z" fill="white"/>
<path d="M42.91 34.87V37.95C42.91 38.23 42.81 38.39 42.61 38.44C42.12 38.59 41.62 38.72 41.11 38.82C40.51 38.93 39.91 38.98 39.31 38.97C37.68 38.97 36.41 38.54 35.48 37.69C34.55 36.84 34.09 35.47 34.09 33.59V24.22H31.82C31.62 24.22 31.52 24.11 31.52 23.88L31.55 20.18C31.55 19.98 31.66 19.88 31.89 19.88H34.16C34.19 19.45 34.19 18.99 34.23 18.42C34.27 17.86 34.32 17.29 34.38 16.73C34.44 16.17 34.5 15.71 34.55 15.36C34.57 15.29 34.61 15.22 34.66 15.15C34.71 15.09 34.77 15.04 34.85 15.02L39.32 14.46C39.38 14.44 39.45 14.44 39.51 14.46C39.56 14.49 39.58 14.56 39.58 14.69C39.53 15.27 39.49 16.05 39.47 17.04C39.44 18.03 39.45 18.96 39.42 19.89H42.71C42.86 19.89 42.94 19.99 42.94 20.19L42.91 23.96C42.93 24.08 42.85 24.2 42.72 24.22H39.41V32.31C39.41 33.16 39.5 33.77 39.79 34.13C40.08 34.49 40.61 34.67 41.39 34.67C41.62 34.67 41.83 34.67 42.03 34.65C42.23 34.64 42.43 34.62 42.63 34.59C42.7 34.56 42.77 34.57 42.84 34.61C42.9 34.65 42.93 34.73 42.93 34.85" fill="white"/>
</g>
</g>
</g>
<defs>
<clipPath id="clip0_1_2125">
<rect width="56" height="54.6" fill="white"/>
</clipPath>
</defs>
</svg>
