<svg width="56" height="55" viewBox="0 0 56 55" fill="none" xmlns="http://www.w3.org/2000/svg">
<mask id="mask0_1_2666" style="mask-type:luminance" maskUnits="userSpaceOnUse" x="0" y="0" width="56" height="55">
<path d="M56 0H0V54.6H56V0Z" fill="white"/>
</mask>
<g mask="url(#mask0_1_2666)">
<mask id="mask1_1_2666" style="mask-type:luminance" maskUnits="userSpaceOnUse" x="0" y="0" width="56" height="55">
<path d="M56 0H0V54.6H56V0Z" fill="white"/>
</mask>
<g mask="url(#mask1_1_2666)">
<path d="M9.92 0H46.09C51.57 0 56.01 4.43998 56.01 9.91998V44.69C56.01 50.17 51.57 54.61 46.09 54.61H9.92C4.44 54.6 0 50.16 0 44.68V9.91C0 4.43 4.44 -0.0100098 9.92 -0.0100098" fill="#EB1000"/>
<path d="M43.54 41.06H36.89C36.3 41.07 35.76 40.72 35.52 40.18L28.3 23.3C28.25 23.13 28.08 23.03 27.91 23.08C27.81 23.11 27.73 23.19 27.69 23.29L23.19 34.01C23.11 34.21 23.19 34.43 23.39 34.51C23.44 34.53 23.49 34.54 23.54 34.54H28.49C28.8 34.54 29.07 34.72 29.19 35.01L31.36 39.83C31.55 40.28 31.34 40.8 30.89 41C30.78 41.05 30.66 41.07 30.54 41.07H12.54C12.09 41.07 11.72 40.7 11.72 40.24C11.72 40.13 11.74 40.02 11.79 39.92L23.24 12.64C23.48 12.05 24.06 11.67 24.69 11.67H31.3C31.94 11.67 32.52 12.05 32.75 12.64L44.28 39.92C44.46 40.34 44.27 40.82 43.85 41C43.75 41.04 43.64 41.06 43.53 41.07" fill="white"/>
</g>
</g>
</svg>
