<svg width="54" height="54" viewBox="0 0 54 54" fill="none" xmlns="http://www.w3.org/2000/svg">
<rect width="54" height="54" rx="10" fill="#F96842"/>
<path d="M14.8478 33.6L22.7357 29.2L22.8559 28.8L22.7357 28.6H22.3353L21.014 28.52L16.5295 28.4L12.6056 28.2L8.8018 28L7.84084 27.8L7 26.6L7.08008 26L7.88088 25.48L9.04204 25.56L11.5646 25.76L15.3684 26L18.1311 26.16L22.2152 26.64H22.8559L22.9359 26.36L22.7357 26.2L22.5756 26.04L18.6116 23.4L14.3674 20.6L12.1251 18.96L10.9239 18.16L10.3233 17.36L10.0831 15.68L11.1642 14.48L12.6456 14.6L13.006 14.68L14.4875 15.84L17.6907 18.28L21.8148 21.4L22.4154 21.88L22.6557 21.72L22.6957 21.6L22.4154 21.16L20.2132 17L17.8108 12.84L16.7297 11.12L16.4494 10.08C16.3293 9.68 16.2893 9.28 16.2893 8.88L17.4905 7.2L18.2112 7L19.8929 7.24L20.5335 7.8L21.5746 10.2L23.2162 13.92L25.8188 18.96L26.6196 20.48L27.02 21.84L27.1401 22.24H27.4204V22.04L27.6206 19.16L28.021 15.68L28.4214 11.2L28.5415 9.92L29.1822 8.4L30.3834 7.6L31.4244 8.04L32.2252 9.2L32.1051 9.92L31.6647 13L30.6236 17.84L30.023 21.12H30.3834L30.7838 20.68L32.4254 18.52L35.1882 15.08L36.3894 13.68L37.8308 12.2L38.7518 11.48H40.4735L41.7147 13.36L41.1542 15.32L39.3924 17.56L37.9109 19.44L35.7888 22.28L34.5075 24.56L34.6276 24.72H34.9079L39.7127 23.68L42.2753 23.24L45.3183 22.72L46.7197 23.36L46.8799 24L46.3193 25.36L43.036 26.16L39.1922 26.96L33.4665 28.28L33.3864 28.32L33.4665 28.44L36.029 28.68L37.1502 28.76H39.8729L44.9179 29.16L46.2392 29.96L47 31.04L46.8799 31.84L44.8378 32.88L42.1151 32.24L35.7087 30.72L33.5465 30.2H33.2262V30.36L35.0681 32.16L38.3914 35.16L42.6356 39.04L42.8358 40L42.3153 40.8L41.7548 40.72L38.0711 37.92L36.6296 36.72L33.4264 34H33.2262V34.28L33.9469 35.36L37.8709 41.24L38.0711 43.04L37.7908 43.6L36.7498 44L35.6687 43.76L33.3463 40.56L30.9439 36.96L29.0621 33.68L28.8619 33.84L27.7007 45.92L27.1802 46.52L25.979 47L24.978 46.2L24.4174 45L24.978 42.52L25.6186 39.32L26.1391 36.76L26.6196 33.6L26.8999 32.56V32.48H26.6196L24.2172 35.8L20.6136 40.72L17.7307 43.76L17.0501 44.04L15.8488 43.44L15.969 42.32L16.6096 41.4L20.6136 36.28L23.016 33.12L24.6176 31.28L24.5776 31.08H24.4575L13.8869 37.96L12.005 38.2L11.2042 37.4L11.2843 36.2L11.6847 35.8L14.8879 33.6H14.8478Z" fill="white"/>
</svg>
