<svg width="54" height="54" viewBox="0 0 54 54" fill="none" xmlns="http://www.w3.org/2000/svg">
<rect width="54" height="54" rx="10" fill="white"/>
<g clip-path="url(#clip0_1_3119)">
<path d="M34.9005 22H45.2326C46.2088 22 47.0001 22.8506 47.0001 23.9V34.017C47.0001 37.8736 44.0918 41 40.5043 41H40.4736C36.886 41.0005 33.9773 37.8746 33.9768 34.018C33.9768 34.0177 33.9768 34.0173 33.9768 34.017V22.993C33.9768 22.4446 34.3904 22 34.9005 22Z" fill="#5059C9"/>
<path d="M41.8838 20C44.1957 20 46.0698 17.9853 46.0698 15.5C46.0698 13.0147 44.1957 11 41.8838 11C39.5719 11 37.6978 13.0147 37.6978 15.5C37.6978 17.9853 39.5719 20 41.8838 20Z" fill="#5059C9"/>
<path d="M28.8605 20C32.1999 20 34.907 17.0899 34.907 13.5C34.907 9.91015 32.1999 7 28.8605 7C25.5211 7 22.814 9.91015 22.814 13.5C22.814 17.0899 25.5211 20 28.8605 20Z" fill="#7B83EB"/>
<path d="M36.9228 22H19.8679C18.9034 22.0257 18.1404 22.8861 18.1628 23.923V35.462C18.0281 41.6842 22.6074 46.8477 28.3954 47C34.1833 46.8477 38.7626 41.6842 38.6279 35.462V23.923C38.6503 22.8861 37.8873 22.0257 36.9228 22Z" fill="#7B83EB"/>
<path opacity="0.1" d="M29.3256 22V38.17C29.321 38.9115 28.903 39.5777 28.2652 39.86C28.0621 39.9524 27.8438 39.9999 27.6233 40H18.9814C18.8605 39.67 18.7489 39.34 18.6559 39C18.3302 37.8525 18.1641 36.6597 18.1628 35.46V23.92C18.1405 22.8848 18.9022 22.0257 19.8652 22H29.3256Z" fill="black"/>
<path opacity="0.2" d="M28.3954 22V39.17C28.3954 39.407 28.3511 39.6417 28.2652 39.86C28.0025 40.5457 27.3829 40.995 26.6931 41H19.4187C19.2605 40.67 19.1117 40.34 18.9814 40C18.8512 39.66 18.7489 39.34 18.6559 39C18.3302 37.8526 18.1641 36.6597 18.1628 35.46V23.92C18.1405 22.8848 18.9022 22.0257 19.8652 22H28.3954Z" fill="black"/>
<path opacity="0.2" d="M28.3954 22V37.17C28.3883 38.1775 27.6303 38.9924 26.6931 39H18.6559C18.3302 37.8526 18.1641 36.6597 18.1628 35.46V23.92C18.1405 22.8848 18.9022 22.0257 19.8652 22H28.3954Z" fill="black"/>
<path opacity="0.2" d="M27.4652 22V37.17C27.4581 38.1775 26.7001 38.9924 25.7628 39H18.6559C18.3302 37.8526 18.1641 36.6597 18.1628 35.46V23.92C18.1405 22.8848 18.9022 22.0257 19.8652 22H27.4652Z" fill="black"/>
<path opacity="0.1" d="M29.3256 16.83V19.98C29.1675 19.99 29.0187 20 28.8605 20C28.7024 20 28.5535 19.99 28.3954 19.98C28.0814 19.9576 27.77 19.9041 27.4652 19.82C25.5814 19.3405 24.0252 17.9203 23.2791 16C23.1508 15.6775 23.0511 15.3427 22.9814 15H27.6233C28.562 15.0039 29.3221 15.8209 29.3256 16.83Z" fill="black"/>
<path opacity="0.2" d="M28.3953 17.83V19.98C28.0813 19.9576 27.7699 19.904 27.4651 19.82C25.5814 19.3405 24.0251 17.9203 23.2791 16H26.693C27.6317 16.0038 28.3918 16.8209 28.3953 17.83Z" fill="black"/>
<path opacity="0.2" d="M28.3953 17.83V19.98C28.0813 19.9576 27.7699 19.904 27.4651 19.82C25.5814 19.3405 24.0251 17.9203 23.2791 16H26.693C27.6317 16.0038 28.3918 16.8209 28.3953 17.83Z" fill="black"/>
<path opacity="0.2" d="M27.4651 17.83V19.82C25.5814 19.3404 24.0251 17.9203 23.2791 16H25.7628C26.7015 16.0038 27.4615 16.8209 27.4651 17.83Z" fill="black"/>
<path d="M8.70511 16H25.76C26.7017 16 27.4651 16.8207 27.4651 17.833V36.167C27.4651 37.1793 26.7017 38 25.76 38H8.70511C7.7634 38 7 37.1793 7 36.167V17.833C7 16.8207 7.76341 16 8.70511 16Z" fill="url(#paint0_linear_1_3119)"/>
<path d="M21.72 22.978H18.3107V32.958H16.1386V22.978H12.7451V21.042H21.72V22.978Z" fill="white"/>
</g>
<defs>
<linearGradient id="paint0_linear_1_3119" x1="10.5552" y1="14.5677" x2="25.4102" y2="38.501" gradientUnits="userSpaceOnUse">
<stop stop-color="#5A62C3"/>
<stop offset="0.5" stop-color="#4D55BD"/>
<stop offset="1" stop-color="#3940AB"/>
</linearGradient>
<clipPath id="clip0_1_3119">
<rect width="40" height="40" fill="white" transform="translate(7 7)"/>
</clipPath>
</defs>
</svg>
