<svg width="54" height="54" viewBox="0 0 54 54" fill="none" xmlns="http://www.w3.org/2000/svg">
<rect width="54" height="54" rx="10" fill="white"/>
<g clip-path="url(#clip0_1_3041)">
<mask id="mask0_1_3041" style="mask-type:luminance" maskUnits="userSpaceOnUse" x="7" y="7" width="40" height="40">
<path d="M47 7H7V47H47V7Z" fill="white"/>
</mask>
<g mask="url(#mask0_1_3041)">
<mask id="mask1_1_3041" style="mask-type:luminance" maskUnits="userSpaceOnUse" x="7" y="7" width="40" height="40">
<path d="M47 7H7V47H47V7Z" fill="white"/>
</mask>
<g mask="url(#mask1_1_3041)">
<path d="M22.8761 36.8717L20.1887 44.9339C19.5495 46.8515 17.2008 47.5533 15.6144 46.3008L9.04119 41.1115C7.81626 40.1444 7.32885 38.5134 7.82237 37.0328C8.32656 35.5202 9.74206 34.5 11.3364 34.5H26.1666C24.6737 34.5 23.3482 35.4553 22.8761 36.8717Z" fill="url(#paint0_linear_1_3041)"/>
<path d="M22.8761 36.8717L20.1887 44.9339C19.5495 46.8515 17.2008 47.5533 15.6144 46.3008L9.04119 41.1115C7.81626 40.1444 7.32885 38.5134 7.82237 37.0328C8.32656 35.5202 9.74206 34.5 11.3364 34.5H26.1666C24.6737 34.5 23.3482 35.4553 22.8761 36.8717Z" fill="url(#paint1_radial_1_3041)"/>
<path d="M17.1352 19.5H32.3473C38.1585 19.5 44.1444 23.6765 42.5357 28.4951L46.7525 15.8643C47.9128 12.4646 44.2714 7 36.091 7H19.6352C18.5591 7 17.6038 7.68858 17.2635 8.70944L14.7635 16.2094C14.2239 17.8282 15.4288 19.5 17.1352 19.5Z" fill="url(#paint2_linear_1_3041)"/>
<path d="M17.1352 19.5H32.3473C38.1585 19.5 44.1444 23.6765 42.5357 28.4951L46.7525 15.8643C47.9128 12.4646 44.2714 7 36.091 7H19.6352C18.5591 7 17.6038 7.68858 17.2635 8.70944L14.7635 16.2094C14.2239 17.8282 15.4288 19.5 17.1352 19.5Z" fill="url(#paint3_linear_1_3041)"/>
<path d="M31.9301 34.5H11.6697C9.8767 34.5 8.28481 35.647 7.71729 37.3477L11.8835 24.849C12.4507 23.1476 14.0429 22 15.8364 22H36.0893C41.6941 22 45.5917 19.3623 46.7918 15.7609L42.539 28.5405C41.5632 31.4558 38.0414 34.5 31.9301 34.5Z" fill="url(#paint4_linear_1_3041)"/>
<path d="M31.9301 34.5H11.6697C9.8767 34.5 8.28481 35.647 7.71729 37.3477L11.8835 24.849C12.4507 23.1476 14.0429 22 15.8364 22H36.0893C41.6941 22 45.5917 19.3623 46.7918 15.7609L42.539 28.5405C41.5632 31.4558 38.0414 34.5 31.9301 34.5Z" fill="url(#paint5_linear_1_3041)"/>
</g>
</g>
</g>
<defs>
<linearGradient id="paint0_linear_1_3041" x1="8.66623" y1="36.1667" x2="13.6662" y2="50.9583" gradientUnits="userSpaceOnUse">
<stop stop-color="#309C61"/>
<stop offset="1" stop-color="#1EC8B0"/>
</linearGradient>
<radialGradient id="paint1_radial_1_3041" cx="0" cy="0" r="1" gradientUnits="userSpaceOnUse" gradientTransform="translate(17.6246 49.5) rotate(-90) scale(18.3333 22.9846)">
<stop offset="0.615451" stop-color="#1E794A" stop-opacity="0"/>
<stop offset="1" stop-color="#1E794A"/>
</radialGradient>
<linearGradient id="paint2_linear_1_3041" x1="19.5" y1="12.2083" x2="44.6731" y2="19.1605" gradientUnits="userSpaceOnUse">
<stop stop-color="#20AC9D"/>
<stop offset="0.568447" stop-color="#1A7F7C"/>
<stop offset="1" stop-color="#024169"/>
</linearGradient>
<linearGradient id="paint3_linear_1_3041" x1="32" y1="7.41668" x2="38.4583" y2="24.7083" gradientUnits="userSpaceOnUse">
<stop stop-color="#1A7F7C" stop-opacity="0"/>
<stop offset="0.588659" stop-color="#004695" stop-opacity="0.6"/>
<stop offset="1" stop-color="#003580"/>
</linearGradient>
<linearGradient id="paint4_linear_1_3041" x1="13.6665" y1="24.0833" x2="37.8332" y2="34.2916" gradientUnits="userSpaceOnUse">
<stop stop-color="#76EB95"/>
<stop offset="0.179334" stop-color="#52D17C"/>
<stop offset="0.713946" stop-color="#22918B"/>
<stop offset="1" stop-color="#0C74A1"/>
</linearGradient>
<linearGradient id="paint5_linear_1_3041" x1="15.7499" y1="29.2916" x2="11.7915" y2="27.625" gradientUnits="userSpaceOnUse">
<stop stop-color="#52D17C" stop-opacity="0"/>
<stop offset="1" stop-color="#B0F098"/>
</linearGradient>
<clipPath id="clip0_1_3041">
<rect width="40" height="40" fill="white" transform="translate(7 7)"/>
</clipPath>
</defs>
</svg>
