<svg width="54" height="54" viewBox="0 0 54 54" fill="none" xmlns="http://www.w3.org/2000/svg">
<rect width="54" height="54" rx="10" fill="white"/>
<g clip-path="url(#clip0_1_3152)">
<path d="M12.7144 37.1L28.7144 18.1111L47.0001 30.4556V43.1111C47.0001 45.2556 45.2058 47 43.0001 47H19.5715C15.7886 47 12.7144 44.0111 12.7144 40.3333V37.1Z" fill="url(#paint0_radial_1_3152)"/>
<path d="M12.7144 23.7111C12.7144 20.9444 15.0115 18.7111 17.8572 18.7111H41.1601L47.0001 15.8889V29.7778C47.0001 31.9222 45.2058 33.6667 43.0001 33.6667H19.5715C15.7886 33.6667 12.7144 36.6556 12.7144 40.3333V23.7111Z" fill="url(#paint1_linear_1_3152)"/>
<path d="M12.7144 23.7111C12.7144 20.9444 15.0115 18.7111 17.8572 18.7111H41.1601L47.0001 15.8889V29.7778C47.0001 31.9222 45.2058 33.6667 43.0001 33.6667H19.5715C15.7886 33.6667 12.7144 36.6556 12.7144 40.3333V23.7111Z" fill="url(#paint2_radial_1_3152)" fill-opacity="0.6"/>
<path d="M12.7144 23.7111C12.7144 20.9444 15.0115 18.7111 17.8572 18.7111H41.1601L47.0001 15.8889V29.7778C47.0001 31.9222 45.2058 33.6667 43.0001 33.6667H19.5715C15.7886 33.6667 12.7144 36.6556 12.7144 40.3333V23.7111Z" fill="url(#paint3_radial_1_3152)" fill-opacity="0.1"/>
<path d="M12.7144 13.6667C12.7144 9.98889 15.7886 7 19.5715 7H43.0001C45.2058 7 47.0001 8.74444 47.0001 10.8889V16.4444C47.0001 18.5889 45.2058 20.3333 43.0001 20.3333H19.5715C15.7886 20.3333 12.7144 23.3222 12.7144 27V13.6667Z" fill="url(#paint4_linear_1_3152)"/>
<path d="M12.7144 13.6667C12.7144 9.98889 15.7886 7 19.5715 7H43.0001C45.2058 7 47.0001 8.74444 47.0001 10.8889V16.4444C47.0001 18.5889 45.2058 20.3333 43.0001 20.3333H19.5715C15.7886 20.3333 12.7144 23.3222 12.7144 27V13.6667Z" fill="url(#paint5_radial_1_3152)" fill-opacity="0.8"/>
<path d="M21.5714 25.8889H10.7143C8.66294 25.8889 7 27.5056 7 29.5V40.0556C7 42.0499 8.66294 43.6667 10.7143 43.6667H21.5714C23.6228 43.6667 25.2857 42.0499 25.2857 40.0556V29.5C25.2857 27.5056 23.6228 25.8889 21.5714 25.8889Z" fill="url(#paint6_radial_1_3152)"/>
<path d="M21.5714 25.8889H10.7143C8.66294 25.8889 7 27.5056 7 29.5V40.0556C7 42.0499 8.66294 43.6667 10.7143 43.6667H21.5714C23.6228 43.6667 25.2857 42.0499 25.2857 40.0556V29.5C25.2857 27.5056 23.6228 25.8889 21.5714 25.8889Z" fill="url(#paint7_radial_1_3152)" fill-opacity="0.65"/>
<path d="M22.417 29.7L20.1656 39.8556H17.4799L16.1542 33.7667L14.7599 39.8667H12.0399L9.87988 29.7111H12.097L13.4342 36.4111L14.7599 29.7111H17.4799L18.8627 36.4111L20.1656 29.7111H22.417V29.7Z" fill="white"/>
</g>
<defs>
<radialGradient id="paint0_radial_1_3152" cx="0" cy="0" r="1" gradientUnits="userSpaceOnUse" gradientTransform="translate(48.274 46.7378) scale(54.3657 22.3889)">
<stop offset="0.18" stop-color="#1657F4"/>
<stop offset="0.57" stop-color="#0036C4"/>
</radialGradient>
<linearGradient id="paint1_linear_1_3152" x1="12.7144" y1="28.1111" x2="38.9658" y2="28.1111" gradientUnits="userSpaceOnUse">
<stop stop-color="#66C0FF"/>
<stop offset="0.26" stop-color="#0094F0"/>
</linearGradient>
<radialGradient id="paint2_radial_1_3152" cx="0" cy="0" r="1" gradientTransform="matrix(-23.1185 23.6437 59.9036 55.364 44.1482 22.6401)" gradientUnits="userSpaceOnUse">
<stop offset="0.14" stop-color="#D471FF"/>
<stop offset="0.83" stop-color="#509DF5" stop-opacity="0"/>
</radialGradient>
<radialGradient id="paint3_radial_1_3152" cx="0" cy="0" r="1" gradientUnits="userSpaceOnUse" gradientTransform="translate(43.3738 29.7764) rotate(90) scale(20.6889 116.171)">
<stop offset="0.28" stop-color="#4F006F" stop-opacity="0"/>
<stop offset="1" stop-color="#4F006F"/>
</radialGradient>
<linearGradient id="paint4_linear_1_3152" x1="12.7144" y1="16.7556" x2="46.9995" y2="17.3433" gradientUnits="userSpaceOnUse">
<stop stop-color="#9DEAFF"/>
<stop offset="0.2" stop-color="#3BD5FF"/>
</linearGradient>
<radialGradient id="paint5_radial_1_3152" cx="0" cy="0" r="1" gradientTransform="matrix(-32.8191 7.45446 18.3665 76.4307 45.8677 3.60796)" gradientUnits="userSpaceOnUse">
<stop offset="0.06" stop-color="#E4A7FE"/>
<stop offset="0.54" stop-color="#E4A7FE" stop-opacity="0"/>
</radialGradient>
<radialGradient id="paint6_radial_1_3152" cx="0" cy="0" r="1" gradientTransform="matrix(18.2878 17.7798 18.2878 -17.7798 6.79926 23.5233)" gradientUnits="userSpaceOnUse">
<stop offset="0.08" stop-color="#367AF2"/>
<stop offset="0.87" stop-color="#001A8F"/>
</radialGradient>
<radialGradient id="paint7_radial_1_3152" cx="0" cy="0" r="1" gradientUnits="userSpaceOnUse" gradientTransform="translate(19.3826 36.5022) rotate(90) scale(12.4444 14.5943)">
<stop offset="0.59" stop-color="#2763E5" stop-opacity="0"/>
<stop offset="0.97" stop-color="#58AAFE"/>
</radialGradient>
<clipPath id="clip0_1_3152">
<rect width="40" height="40" fill="white" transform="translate(7 7)"/>
</clipPath>
</defs>
</svg>
