<svg width="54" height="54" viewBox="0 0 54 54" fill="none" xmlns="http://www.w3.org/2000/svg">
<rect width="54" height="54" rx="10" fill="white"/>
<g clip-path="url(#clip0_1_2968)">
<mask id="mask0_1_2968" style="mask-type:luminance" maskUnits="userSpaceOnUse" x="7" y="7" width="40" height="40">
<path d="M47 7H7V47H47V7Z" fill="white"/>
</mask>
<g mask="url(#mask0_1_2968)">
<mask id="mask1_1_2968" style="mask-type:luminance" maskUnits="userSpaceOnUse" x="7" y="7" width="40" height="40">
<path d="M47 7H7V47H47V7Z" fill="white"/>
</mask>
<g mask="url(#mask1_1_2968)">
<path d="M14.0817 31.8673L29.4304 20.3205C30.8713 19.2365 32.8551 19.2351 34.2975 20.3169L44.7989 28.1927C46.9578 29.8118 46.9605 33.0492 44.8042 34.672L29.5815 46.1278C28.053 47.278 25.9477 47.2778 24.4194 46.1271L14.0803 38.3423C11.9268 36.7209 11.9274 33.4879 14.0817 31.8673Z" fill="url(#paint0_linear_1_2968)"/>
<path d="M14.0817 31.8673L29.4304 20.3205C30.8713 19.2365 32.8551 19.2351 34.2975 20.3169L44.7989 28.1927C46.9578 29.8118 46.9605 33.0492 44.8042 34.672L29.5815 46.1278C28.053 47.278 25.9477 47.2778 24.4194 46.1271L14.0803 38.3423C11.9268 36.7209 11.9274 33.4879 14.0817 31.8673Z" fill="url(#paint1_radial_1_2968)"/>
<path d="M14.0505 31.8636L15.6546 30.6468L32.8952 43.6374L29.5811 46.1295C28.0526 47.2788 25.9481 47.2782 24.4204 46.1279L14.0622 38.3288C11.9141 36.7114 11.9083 33.4888 14.0505 31.8636Z" fill="url(#paint2_linear_1_2968)" fill-opacity="0.6"/>
<path d="M14.0505 31.8636L15.6546 30.6468L32.8952 43.6374L29.5811 46.1295C28.0526 47.2788 25.9481 47.2782 24.4204 46.1279L14.0622 38.3288C11.9141 36.7114 11.9083 33.4888 14.0505 31.8636Z" fill="url(#paint3_radial_1_2968)"/>
<path d="M9.20682 19.3305L24.4185 7.87392C25.9471 6.72269 28.0532 6.72256 29.5819 7.87359L39.92 15.6576C42.0735 17.279 42.0729 20.5121 39.9187 22.1326L24.5708 33.6787C23.1295 34.763 21.145 34.7641 19.7025 33.6815L9.21219 25.808C7.05488 24.1888 7.0522 20.9533 9.20682 19.3305Z" fill="url(#paint4_linear_1_2968)"/>
<path d="M9.20682 19.3305L24.4185 7.87392C25.9471 6.72269 28.0532 6.72256 29.5819 7.87359L39.92 15.6576C42.0735 17.279 42.0729 20.5121 39.9187 22.1326L24.5708 33.6787C23.1295 34.763 21.145 34.7641 19.7025 33.6815L9.21219 25.808C7.05488 24.1888 7.0522 20.9533 9.20682 19.3305Z" fill="url(#paint5_radial_1_2968)"/>
<path d="M9.20682 19.3305L24.4185 7.87392C25.9471 6.72269 28.0532 6.72256 29.5819 7.87359L39.92 15.6576C42.0735 17.279 42.0729 20.5121 39.9187 22.1326L24.5708 33.6787C23.1295 34.763 21.145 34.7641 19.7025 33.6815L9.21219 25.808C7.05488 24.1888 7.0522 20.9533 9.20682 19.3305Z" fill="url(#paint6_linear_1_2968)"/>
<path d="M21.1245 10.3868L24.4158 7.89C25.9448 6.7301 28.0579 6.72629 29.5911 7.88065L39.9378 15.6711C42.0859 17.2885 42.0917 20.5112 39.9495 22.1363L38.3455 23.3532L21.1245 10.3868Z" fill="url(#paint7_linear_1_2968)" fill-opacity="0.6"/>
<path d="M21.1245 10.3868L24.4158 7.89C25.9448 6.7301 28.0579 6.72629 29.5911 7.88065L39.9378 15.6711C42.0859 17.2885 42.0917 20.5112 39.9495 22.1363L38.3455 23.3532L21.1245 10.3868Z" fill="url(#paint8_radial_1_2968)"/>
<path d="M24.9816 34.3606L41.1767 27.8203C42.4375 27.3111 43.8729 27.4985 44.9607 28.3144L34.3162 20.331C32.7932 19.1888 30.7838 18.9264 29.0186 19.6393L12.8236 26.1796C11.5627 26.6888 10.1274 26.5014 9.03955 25.6855L19.6841 33.6689C21.207 34.8111 23.2165 35.0735 24.9816 34.3606Z" fill="url(#paint9_linear_1_2968)"/>
</g>
</g>
</g>
<defs>
<linearGradient id="paint0_linear_1_2968" x1="25.9872" y1="48.0703" x2="37.3328" y2="23.7584" gradientUnits="userSpaceOnUse">
<stop stop-color="#6864F6"/>
<stop offset="0.528781" stop-color="#4A43CB"/>
<stop offset="1" stop-color="#5B2AB5"/>
</linearGradient>
<radialGradient id="paint1_radial_1_2968" cx="0" cy="0" r="1" gradientTransform="matrix(2.11935 8.14508 -25.4322 8.19021 35.2115 28.565)" gradientUnits="userSpaceOnUse">
<stop stop-color="#312A9A"/>
<stop offset="1" stop-color="#4A43CB" stop-opacity="0"/>
</radialGradient>
<linearGradient id="paint2_linear_1_2968" x1="30.5411" y1="32.6697" x2="12.0299" y2="36.2144" gradientUnits="userSpaceOnUse">
<stop stop-color="#A3A3FF" stop-opacity="0"/>
<stop offset="1" stop-color="#A3A3FF"/>
</linearGradient>
<radialGradient id="paint3_radial_1_2968" cx="0" cy="0" r="1" gradientUnits="userSpaceOnUse" gradientTransform="translate(16.6792 30.6468) rotate(34.6614) scale(11.0273 5.59817)">
<stop stop-color="#4A43CB"/>
<stop offset="1" stop-color="#6864F6" stop-opacity="0"/>
</radialGradient>
<linearGradient id="paint4_linear_1_2968" x1="36.8634" y1="9.29977" x2="10.5173" y2="26.7475" gradientUnits="userSpaceOnUse">
<stop stop-color="#AC80FF"/>
<stop offset="0.660101" stop-color="#7B7BFF"/>
<stop offset="1" stop-color="#5750E2"/>
</linearGradient>
<radialGradient id="paint5_radial_1_2968" cx="0" cy="0" r="1" gradientTransform="matrix(-1.34867 -6.00162 18.8247 -5.23567 19.9449 24.5776)" gradientUnits="userSpaceOnUse">
<stop stop-color="#1B44B1"/>
<stop offset="1" stop-color="#7B7BFF" stop-opacity="0"/>
</radialGradient>
<linearGradient id="paint6_linear_1_2968" x1="16.2842" y1="14.9321" x2="10.0871" y2="27.5171" gradientUnits="userSpaceOnUse">
<stop stop-color="#7B7BFF" stop-opacity="0"/>
<stop offset="1" stop-color="#2052CB"/>
</linearGradient>
<linearGradient id="paint7_linear_1_2968" x1="23.3203" y1="20.3288" x2="41.0499" y2="14.6604" gradientUnits="userSpaceOnUse">
<stop stop-color="#BABAFF" stop-opacity="0"/>
<stop offset="1" stop-color="#BABAFF"/>
</linearGradient>
<radialGradient id="paint8_radial_1_2968" cx="0" cy="0" r="1" gradientUnits="userSpaceOnUse" gradientTransform="translate(34.3702 24.8383) rotate(-125.652) scale(10.4047 7.82625)">
<stop stop-color="#5750E2"/>
<stop offset="1" stop-color="#8F8FFF" stop-opacity="0"/>
</radialGradient>
<linearGradient id="paint9_linear_1_2968" x1="15.7501" y1="35.9583" x2="36.4676" y2="19.3514" gradientUnits="userSpaceOnUse">
<stop stop-color="#58AAFE"/>
<stop offset="0.28329" stop-color="#8F8FFF"/>
<stop offset="0.671554" stop-color="#A3A3FF"/>
<stop offset="1" stop-color="#CEB0FF"/>
</linearGradient>
<clipPath id="clip0_1_2968">
<rect width="40" height="40" fill="white" transform="translate(7 7)"/>
</clipPath>
</defs>
</svg>
