<svg width="54" height="54" viewBox="0 0 54 54" fill="none" xmlns="http://www.w3.org/2000/svg">
<rect width="54" height="54" rx="10" fill="white"/>
<g clip-path="url(#clip0_1_3215)">
<path d="M12.7144 19.7775C12.7144 17.0159 15.0173 14.7775 17.8577 14.7775H47.0009V43.6662C47.0009 45.5072 45.4658 47 43.5721 47H19.571C15.7844 47 12.7144 44.0153 12.7144 40.3337V19.7775Z" fill="url(#paint0_radial_1_3215)"/>
<path d="M12.7144 19.7775C12.7144 17.0159 15.0173 14.7775 17.8577 14.7775H47.0009V43.6662C47.0009 45.5072 45.4658 47 43.5721 47H19.571C15.7844 47 12.7144 44.0153 12.7144 40.3337V19.7775Z" fill="url(#paint1_radial_1_3215)"/>
<path d="M12.7144 25.3338C12.7144 22.5719 15.0173 20.3338 17.8577 20.3338H33.2863C31.3927 20.3338 29.8575 21.8263 29.8575 23.6672V30.3338C29.8575 32.1744 28.3226 33.6672 26.4287 33.6672H19.572C15.785 33.6672 12.7153 36.6519 12.7153 40.3338V25.3338H12.7144Z" fill="url(#paint2_linear_1_3215)"/>
<path d="M12.7144 25.3338C12.7144 22.5719 15.0173 20.3338 17.8577 20.3338H33.2863C31.3927 20.3338 29.8575 21.8263 29.8575 23.6672V30.3338C29.8575 32.1744 28.3226 33.6672 26.4287 33.6672H19.572C15.785 33.6672 12.7153 36.6519 12.7153 40.3338V25.3338H12.7144Z" fill="url(#paint3_linear_1_3215)"/>
<path d="M12.7144 13.6662C12.7144 9.98469 15.7844 7 19.571 7H33.2857V20.3337H19.571C15.7844 20.3337 12.7144 23.3184 12.7144 27V13.6662Z" fill="url(#paint4_linear_1_3215)"/>
<path d="M12.7144 13.6662C12.7144 9.98469 15.7844 7 19.571 7H33.2857V20.3337H19.571C15.7844 20.3337 12.7144 23.3184 12.7144 27V13.6662Z" fill="url(#paint5_radial_1_3215)"/>
<path d="M12.7144 13.6662C12.7144 9.98469 15.7844 7 19.571 7H33.2857V20.3337H19.571C15.7844 20.3337 12.7144 23.3184 12.7144 27V13.6662Z" fill="url(#paint6_linear_1_3215)"/>
<path d="M33.2858 7H43.5712C45.4649 7 47.0001 8.49219 47.0001 10.3328V17.0009C47.0001 18.8416 45.4649 20.3337 43.5712 20.3337H33.2858C31.3921 20.3337 29.8569 18.8416 29.8569 17.0009V10.3328C29.8569 8.49219 31.3921 7 33.2858 7Z" fill="url(#paint7_radial_1_3215)"/>
<path d="M10.7143 25.8887H21.5711C23.6226 25.8887 25.2858 27.5053 25.2858 29.4991V40.0559C25.2858 42.05 23.6226 43.6662 21.5711 43.6662H10.7143C8.66313 43.6662 7 42.05 7 40.0559V29.4991C7 27.5053 8.66313 25.8887 10.7143 25.8887Z" fill="url(#paint8_radial_1_3215)"/>
<path d="M10.7143 25.8887H21.5711C23.6226 25.8887 25.2858 27.5053 25.2858 29.4991V40.0559C25.2858 42.05 23.6226 43.6662 21.5711 43.6662H10.7143C8.66313 43.6662 7 42.05 7 40.0559V29.4991C7 27.5053 8.66313 25.8887 10.7143 25.8887Z" fill="url(#paint9_radial_1_3215)"/>
<path d="M20.9489 39.8569H18.13L16.3604 36.6191C16.2971 36.5056 16.2486 36.4159 16.2148 36.3497C16.1859 36.2791 16.1537 36.1984 16.12 36.1087H16.0914C16.0476 36.2225 16.0065 36.3144 15.9679 36.3847C15.929 36.4559 15.883 36.5431 15.8296 36.6472L13.9942 39.8559H11.3357L14.526 34.7697L11.5546 29.6975H14.3366L15.9094 32.5881C15.9727 32.7062 16.0264 32.8103 16.0698 32.9C16.1184 32.9847 16.1669 33.0862 16.2155 33.2047H16.2444C16.3119 33.0681 16.3653 32.9591 16.4048 32.8791C16.4485 32.7991 16.5071 32.6928 16.5794 32.5609L18.2107 29.6991H20.8618L17.8468 34.6937L20.9496 39.8575L20.9489 39.8569Z" fill="white"/>
</g>
<defs>
<radialGradient id="paint0_radial_1_3215" cx="0" cy="0" r="1" gradientTransform="matrix(-32.3825 -33.1222 -26.4301 24.424 47.1007 49.5437)" gradientUnits="userSpaceOnUse">
<stop offset="0.06" stop-color="#379539"/>
<stop offset="0.42" stop-color="#297C2D"/>
<stop offset="0.7" stop-color="#15561C"/>
</radialGradient>
<radialGradient id="paint1_radial_1_3215" cx="0" cy="0" r="1" gradientTransform="matrix(-13.6912 -12.8692 -10.2415 10.2987 23.085 26.4969)" gradientUnits="userSpaceOnUse">
<stop stop-color="#073B10" stop-opacity="0.698039"/>
<stop offset="0.99" stop-color="#084A13" stop-opacity="0"/>
</radialGradient>
<linearGradient id="paint2_linear_1_3215" x1="12.7144" y1="30.3336" x2="28.4683" y2="30.3336" gradientUnits="userSpaceOnUse">
<stop stop-color="#52D17C"/>
<stop offset="0.33" stop-color="#4AA647"/>
</linearGradient>
<linearGradient id="paint3_linear_1_3215" x1="23" y1="20.3336" x2="23" y2="34.2256" gradientUnits="userSpaceOnUse">
<stop stop-color="#29852F" stop-opacity="0.301961"/>
<stop offset="0.5" stop-color="#4AA647" stop-opacity="0"/>
</linearGradient>
<linearGradient id="paint4_linear_1_3215" x1="13.6247" y1="23.3824" x2="32.1685" y2="6.83538" gradientUnits="userSpaceOnUse">
<stop stop-color="#66D052"/>
<stop offset="1" stop-color="#85E972"/>
</linearGradient>
<radialGradient id="paint5_radial_1_3215" cx="0" cy="0" r="1" gradientUnits="userSpaceOnUse" gradientTransform="translate(32.7672 15.2487) rotate(-180) scale(10.3118 21.2128)">
<stop offset="0.29" stop-color="#4EB43B"/>
<stop offset="1" stop-color="#72CC61" stop-opacity="0"/>
</radialGradient>
<linearGradient id="paint6_linear_1_3215" x1="21.9885" y1="17" x2="12.7144" y2="17" gradientUnits="userSpaceOnUse">
<stop offset="0.18" stop-color="#C0E075" stop-opacity="0"/>
<stop offset="1" stop-color="#D1EB95"/>
</linearGradient>
<radialGradient id="paint7_radial_1_3215" cx="0" cy="0" r="1" gradientTransform="matrix(-19.3291 -15.2032 15.5947 -18.7387 49.4138 22.3678)" gradientUnits="userSpaceOnUse">
<stop offset="0.44" stop-color="#79E96D"/>
<stop offset="1" stop-color="#D0EB76"/>
</radialGradient>
<radialGradient id="paint8_radial_1_3215" cx="0" cy="0" r="1" gradientTransform="matrix(18.2822 17.7765 52.0635 -50.6129 7.53725 25.9841)" gradientUnits="userSpaceOnUse">
<stop stop-color="#20A85E"/>
<stop offset="0.94" stop-color="#09442A"/>
</radialGradient>
<radialGradient id="paint9_radial_1_3215" cx="0" cy="0" r="1" gradientUnits="userSpaceOnUse" gradientTransform="translate(16.3515 36.5565) rotate(90) scale(12.4454 14.7474)">
<stop offset="0.58" stop-color="#33A662" stop-opacity="0"/>
<stop offset="0.97" stop-color="#98F0B0" stop-opacity="0.301961"/>
</radialGradient>
<clipPath id="clip0_1_3215">
<rect width="40" height="40" fill="white" transform="translate(7 7)"/>
</clipPath>
</defs>
</svg>
