<svg width="54" height="54" viewBox="0 0 54 54" fill="none" xmlns="http://www.w3.org/2000/svg">
<rect width="54" height="54" rx="10" fill="white"/>
<g clip-path="url(#clip0_1_2680)">
<mask id="mask0_1_2680" style="mask-type:luminance" maskUnits="userSpaceOnUse" x="7" y="7" width="40" height="40">
<path d="M47 7H7V47H47V7Z" fill="white"/>
</mask>
<g mask="url(#mask0_1_2680)">
<mask id="mask1_1_2680" style="mask-type:luminance" maskUnits="userSpaceOnUse" x="7" y="7" width="40" height="40">
<path d="M47 7H7V47H47V7Z" fill="white"/>
</mask>
<g mask="url(#mask1_1_2680)">
<path d="M28.8789 8.25C30.069 8.25 31.2024 8.75895 31.9931 9.64848L41.4407 20.277C44.0461 23.2081 42.4169 27.8609 38.5521 28.5263L15.9583 32.4167L18.7915 29.2139C19.9091 27.9505 19.9069 26.0515 18.7862 24.7908L10.2476 15.1848C7.8591 12.4978 9.76662 8.25 13.3618 8.25H28.8789Z" fill="url(#paint0_linear_1_2680)"/>
<path d="M13.3618 45.75C9.76662 45.75 7.8591 41.5022 10.2476 38.8151L31.6227 14.7682C33.026 13.1895 33.026 10.8105 31.6227 9.23182L30.75 8.25L44.956 24.2318C46.3593 25.8105 46.3593 28.1895 44.956 29.7682L31.9931 44.3515C31.2024 45.241 30.069 45.75 28.8789 45.75H13.3618Z" fill="url(#paint1_linear_1_2680)"/>
<path d="M13.3618 45.75C9.76662 45.75 7.8591 41.5022 10.2476 38.8151L31.6227 14.7682C33.026 13.1895 33.026 10.8105 31.6227 9.23182L30.75 8.25L44.956 24.2318C46.3593 25.8105 46.3593 28.1895 44.956 29.7682L31.9931 44.3515C31.2024 45.241 30.069 45.75 28.8789 45.75H13.3618Z" fill="url(#paint2_linear_1_2680)"/>
<path d="M22.9837 45.75C20.8265 45.75 19.682 43.2014 21.1151 41.5891L38.2893 22.2682C39.6925 20.6895 39.6925 18.3105 38.2893 16.7318L36.5832 14.8125L44.9559 24.2318C46.3592 25.8105 46.3592 28.1895 44.956 29.7682L31.993 44.3515C31.2023 45.241 30.0689 45.75 28.8788 45.75H22.9837Z" fill="url(#paint3_linear_1_2680)"/>
</g>
</g>
</g>
<defs>
<linearGradient id="paint0_linear_1_2680" x1="27" y1="20.125" x2="12.8333" y2="5.95833" gradientUnits="userSpaceOnUse">
<stop stop-color="#102784"/>
<stop offset="0.274053" stop-color="#1B44B1"/>
<stop offset="1" stop-color="#2764E7"/>
</linearGradient>
<linearGradient id="paint1_linear_1_2680" x1="38.875" y1="17.4167" x2="11.7916" y2="45.125" gradientUnits="userSpaceOnUse">
<stop stop-color="#0FAFFF"/>
<stop offset="0.177827" stop-color="#4894FE"/>
<stop offset="1" stop-color="#2764E7"/>
</linearGradient>
<linearGradient id="paint2_linear_1_2680" x1="18.875" y1="37" x2="23.0416" y2="41.7917" gradientUnits="userSpaceOnUse">
<stop stop-color="#2764E7" stop-opacity="0"/>
<stop offset="1" stop-color="#2052CB"/>
</linearGradient>
<linearGradient id="paint3_linear_1_2680" x1="44.0832" y1="23.0417" x2="24.9165" y2="44.7083" gradientUnits="userSpaceOnUse">
<stop stop-color="#6CE0FF"/>
<stop offset="0.211723" stop-color="#66C0FF"/>
<stop offset="1" stop-color="#58AAFE"/>
</linearGradient>
<clipPath id="clip0_1_2680">
<rect width="40" height="40" fill="white" transform="translate(7 7)"/>
</clipPath>
</defs>
</svg>
